<?xml version="1.0" encoding="utf-8"?>
<!-- Generator: Adobe Illustrator 16.0.4, SVG Export Plug-In . SVG Version: 6.00 Build 0)  -->
<!DOCTYPE svg PUBLIC "-//W3C//DTD SVG 1.1//EN" "http://www.w3.org/Graphics/SVG/1.1/DTD/svg11.dtd">
<svg version="1.1"
	 id="svg4592" inkscape:export-xdpi="150" inkscape:export-filename="S:\ACDH-AG 1\ACDH-AG 1 Archive\OLD_Design\acdh_oeaw_noText_black.png" inkscape:export-ydpi="150" inkscape:version="0.91 r13725" sodipodi:docname="acdh_oeaw_noText_black.svg" xmlns:svg="http://www.w3.org/2000/svg" xmlns:rdf="http://www.w3.org/1999/02/22-rdf-syntax-ns#" xmlns:sodipodi="http://sodipodi.sourceforge.net/DTD/sodipodi-0.dtd" xmlns:cc="http://creativecommons.org/ns#" xmlns:dc="http://purl.org/dc/elements/1.1/" xmlns:inkscape="http://www.inkscape.org/namespaces/inkscape"
	 xmlns="http://www.w3.org/2000/svg" xmlns:xlink="http://www.w3.org/1999/xlink" x="0px" y="0px" width="72.519px"
	 height="84.611px" viewBox="25.884 23.694 72.519 84.611" enable-background="new 25.884 23.694 72.519 84.611"
	 xml:space="preserve">
<sodipodi:namedview  units="px" id="base" inkscape:window-y="-8" inkscape:window-width="1920" inkscape:window-height="1017" inkscape:pageopacity="0.0" inkscape:document-units="px" inkscape:pageshadow="2" inkscape:window-maximized="1" inkscape:current-layer="layer1" inkscape:window-x="-8" borderopacity="1.0" pagecolor="#ffffff" bordercolor="#666666" showgrid="false" inkscape:cy="91.428571" inkscape:cx="-35.431078" inkscape:zoom="2.8">
	</sodipodi:namedview>
<g id="layer1" transform="translate(0,-911.36216)" inkscape:groupmode="layer" inkscape:label="Ebene 1">
	
		<path id="path3472" inkscape:connector-curvature="0" inkscape:export-xdpi="150.27621" inkscape:export-filename="C:\Users\m\3\acdh\online\design\logo\acdh_oeaw_noText.png" inkscape:export-ydpi="150.27621" fill="#FFFFFF" d="
		M44.989,935.064c-10.644,0.54-19.105,9.367-19.105,20.144c0,11.125,9.019,20.144,20.144,20.144c6.593,0,12.44-3.192,16.115-8.089
		v20.176c-3.674-4.896-9.521-8.058-16.115-8.058c-0.348,0-0.695-0.017-1.039,0c-10.644,0.54-19.105,9.367-19.105,20.144
		c0,11.125,9.019,20.144,20.144,20.144c6.593,0,12.44-3.192,16.115-8.089v8.089h4.029v-20.144c0-8.898,5.2-16.115,14.101-16.115
		c8.899,0,14.101,7.217,14.101,16.115v20.144h4.029v-20.206c-0.027-11.094-7.026-20.082-18.13-20.082c-0.348,0-0.79-0.017-1.134,0
		c-5.632,0.286-10.041,2.905-12.967,6.893v-19.011c3.674,4.902,9.518,8.089,16.115,8.089c5.554,0,10.582-2.281,14.227-5.917
		l-2.833-2.833c-2.917,2.917-6.944,4.722-11.394,4.722c-8.9,0-16.115-7.215-16.115-16.115c0-8.9,7.215-16.115,16.115-16.115
		c4.449,0,8.477,1.805,11.394,4.721l2.864-2.864c-3.646-3.645-8.695-5.886-14.258-5.886c-0.348,0-0.695-0.017-1.039,0
		c-6.177,0.313-11.597,3.432-15.076,8.089v-8.089h-4.029v8.058c-3.674-4.896-9.521-8.058-16.115-8.058
		C45.68,935.064,45.333,935.047,44.989,935.064L44.989,935.064z M46.028,939.093c8.9,0,16.115,7.215,16.115,16.115
		c0,8.9-7.215,16.115-16.115,16.115s-16.115-7.215-16.115-16.115C29.913,946.307,37.128,939.093,46.028,939.093z M46.028,983.409
		c8.9,0,16.115,7.215,16.115,16.115s-7.215,16.115-16.115,16.115s-16.115-7.215-16.115-16.115S37.128,983.409,46.028,983.409z"/>
</g>
</svg>
