<svg viewBox="0 0 738.88 281.6" xmlns="http://www.w3.org/2000/svg">
 <g transform="translate(-7.1069 -17.71)">
  <g fill="currentColor">
   <path d="m137.51 299.1c-63.317-3.9062-115.56-49.398-127.81-111.31-1.4409-7.2782-2.5857-17.718-2.5878-23.6l-7.8e-4 -2.16h75.52v1.8484c0 30.986 29.7 60.216 61.2 60.231 0.53016 2.6e-4 0.56 2.0042 0.56 37.6v37.6l-2.64-0.0577c-1.452-0.0317-3.36-0.1021-4.24-0.15639zm15.52-37.338v-37.552l4.24-0.38669c31.464-2.8695 57.433-29.794 57.514-59.629l6e-3 -2.16h75.52v2.176c0 17.34-5.2876 39.209-13.749 56.864-22.281 46.489-71.534 78.071-122.01 78.235l-1.52 5e-3zm183.36-43.291c-28.429-5.4369-30.141-45.748-2.2547-53.107 4.8059-1.2683 11.716-1.1626 16.291 0.24908 25.131 7.7549 24.008 45.457-1.5563 52.257-2.0404 0.54271-10.624 0.9563-12.48 0.60134zm10.079-3.984c8.2682-3.0936 12.148-18.035 8.456-32.567-4.8254-18.992-23.637-18.506-27.68 0.71448-3.9117 18.596 6.8774 36.472 19.224 31.852zm98.982 3.8303c-16.75-2.1584-18.815-26.898-2.9272-35.075 9.3156-4.7944 19.616 0.22036 20.194 9.8315 0.24947 4.1473-0.10765 4.2596-15.877 4.9915-5.6344 0.2615-5.4819 0.16364-4.8908 3.139 1.7903 9.011 10.379 12.636 17.617 7.4365l1.5945-1.1456 0.65415 0.91869c0.89219 1.253 0.87296 1.3238-0.95722 3.5229-4.0233 4.8344-9.5717 7.1321-15.407 6.3801zm6.6401-24.291c1.7662-0.67152 0.26416-7.3171-1.9873-8.7923-3.2751-2.1459-6.8245 1.3794-7.9745 7.9205l-0.21098 1.2h4.6548c2.5601 0 5.0432-0.14769 5.518-0.3282zm71.012 24.332c-3.1189-0.45851-5.2912-2.0884-6.6161-4.964-0.72467-1.5729-0.73888-1.8182-0.83974-14.48l-0.10256-12.88h-2.5032c-3.0624 0-3.3003-0.33042-1.7086-2.3734 1.0788-1.3846 1.2296-1.4666 2.6998-1.4666h1.5572v-5.7273l4.5473-3.1688c6.0138-4.1908 5.6927-4.3602 5.6927 3.0038v5.8731l8.1456 0.1792 0.29846 0.85004c0.20445 0.58233 0.17056 1.1588-0.10765 1.8304l-0.40611 0.98039-7.7703 0.1792 4e-3 10.88c3e-3 7.6432 0.1201 11.265 0.39488 12.175 0.84813 2.8084 3.5121 3.9805 6.6314 2.9177 1.1142-0.37964 1.5097-0.40904 1.5972-0.11875 0.064 0.21222 0.26912 0.86414 0.45584 1.4487l0.33952 1.0629-3.714 1.7451c-3.3324 1.5658-5.7637 2.4122-6.6686 2.3214-0.176-0.0177-1.043-0.13839-1.9268-0.2683zm24.232-0.0409c-5.0206-0.83563-8.5541-5.0601-8.537-10.206 0.0157-4.7064 1.432-5.9916 10.016-9.088 2.759-0.99528 5.8084-2.2054 6.7764-2.6891l1.76-0.87951 0.0962-1.8389c0.48797-9.3241-6.2533-11.491-9.1772-2.9506-1.5041 4.3936-3.5398 5.3778-6.741 3.2593-3.6401-2.4089-2.7315-5.1365 2.7889-8.3717 8.4817-4.9707 14.929-5.4972 19.543-1.5959 3.0932 2.6158 3.5703 4.7005 3.5703 15.603 0 12.292 0.33353 13.136 4.6991 11.89 0.61571-0.17576 1.8262 2.1752 1.3219 2.5673-0.0556 0.0432-2.045 1.0979-4.421 2.3437-5.5387 2.9042-7.9129 2.702-10.399-0.88549-1.0716-1.5464-0.65872-1.5675-3.3467 0.17135-2.3415 1.5147-5.3835 3.0457-5.9342 2.9867-0.176-0.0188-1.0827-0.16124-2.015-0.3164zm9.0441-6.5823 1.1308-0.53927v-12.652l-2.8 1.612c-4.2694 2.4579-5.2 3.5959-5.2 6.3589 0 4.2412 3.4402 6.8559 6.8692 5.2207zm76.011 6.5939c-2.7628-0.35931-6.6414-1.7913-7.188-2.6538-0.413-0.6517-0.85236-3.4897-1.3011-8.4045l-0.20855-2.2836 2.5801-0.24604 1.45 2.921c3.9201 7.8967 11.262 10.309 12.994 4.2694 0.71126-2.4801-1.2652-5.0713-5.4914-7.1996-7.8164-3.9363-10.349-6.9051-10.353-12.137-6e-3 -7.4045 5.7782-11.782 14.878-11.259 5.88 0.33793 6.2793 0.66442 7.351 6.0103 0.90727 4.5258 0.89555 4.6278-0.5728 5.0006l-1.2218 0.31012-1.0924-2.1112c-2.999-5.7957-8.0316-7.8292-10.454-4.2239-2.2459 3.3432-0.48996 5.7484 6.7756 9.2809 6.7382 3.276 8.9238 5.9792 8.9571 11.079 0.0502 7.6681-7.607 12.883-17.103 11.648zm33.113 0.0293c-3.1189-0.45851-5.2912-2.0884-6.6161-4.964-0.72468-1.5729-0.73888-1.8182-0.83975-14.48l-0.10256-12.88h-2.5032c-3.0364 0-3.2342-0.27064-1.7057-2.3342 1.0652-1.4381 1.186-1.5058 2.6847-1.5058h1.5693v-5.7273l4.5473-3.1688c6.0138-4.1908 5.6927-4.3602 5.6927 3.0038v5.8731l8.1456 0.1792 0.29847 0.85003c0.20444 0.58233 0.17056 1.1588-0.10765 1.8304l-0.40611 0.9804-7.7703 0.1792v10.72c0 11.748 0.15479 13.022 1.7696 14.569 1.1599 1.1113 3.2199 1.379 5.2604 0.6837 1.1142-0.37964 1.5097-0.40905 1.5972-0.11875 0.064 0.21222 0.26912 0.86414 0.45584 1.4487l0.33952 1.0629-3.714 1.7451c-3.3324 1.5658-5.7637 2.4122-6.6686 2.3214-0.176-0.0177-1.043-0.13839-1.9268-0.2683zm-522.13-0.34016c-47.107-4.1913-70.793-59.127-41.633-96.56 26.719-34.3 80.87-28.822 100.4 10.156 20.921 41.748-12.267 90.541-58.769 86.404zm21.963-16.474c9.6762-2.5203 19.701-16.721 23.134-32.771 1.221-5.7081 1.2929-17.656 0.14038-23.347-7.3778-36.427-42.193-51.039-65.675-27.565-18.996 18.99-20.234 54.129-2.644 75.053 6.1467 7.3117 12.2 6.5855 14.45-1.7335 0.5772-2.1344 0.92591-46.773 0.43922-56.224-0.42406-8.2343-1.3196-9.5628-6.707-9.95-2.6418-0.18986-3.2842-0.46183-3.2842-1.3904 0-0.88159 2e-3 -0.88167 17.565-0.83039 15.492 0.0452 16.466 0.0816 16.8 0.62675 0.55112 0.89881-0.40112 1.3766-3.2183 1.6147-6.798 0.57464-6.5498-0.91488-6.4337 38.607l0.0869 29.6 0.82886 1.76c2.5325 5.3776 8.5668 8.1001 14.518 6.55zm-10.778-24.194c-0.56849-0.35101 0.0663-0.91578 1.0293-0.91578 1.7481 0 2.449-0.49166 2.8162-1.9753 0.4624-1.8683 0.80388-23.793 0.46889-30.105-0.31148-5.8691-0.36592-5.9768-3.1738-6.2784-1.3591-0.14601-1.8694-0.33185-1.8694-0.68082 0-0.41923 1.3978-0.46799 11.04-0.38507 6.072 0.0522 11.904-0.0406 12.96-0.20631 1.056-0.16568 2.017-0.2084 2.1356-0.0949 0.5314 0.50851-0.47161 7.7263-1.0737 7.7263-0.43037 0-0.58192-0.24458-0.58192-0.93917 0-2.9167-1.3832-3.5408-7.8465-3.5408h-4.6335v14.442l5.4151-0.10107c5.1036-0.0953 5.4592-0.1425 6.1806-0.82107 1.2104-1.1384 1.6187-0.94599 1.3513 0.63676-0.12607 0.74622-0.31873 2.7262-0.42812 4.4-0.21772 3.331-0.94246 4.3081-1.3474 1.8165-0.41179-2.5334-1.2458-2.9186-6.5762-3.0375l-4.672-0.10424 0.15518 8.2642c0.19992 10.647 0.33368 10.976 4.4626 10.982 1.125 2e-3 1.8354 0.45191 1.4001 0.88725-0.2665 0.26651-16.783 0.29559-17.212 0.0303zm220.12 40.151c-1.0541-1.0541-0.17962-2.5163 1.7867-2.9875 3.2239-0.77246 3.1484-0.41827 3.0457-14.286-0.0968-13.071 0.0208-12.487-2.6617-13.238-1.359-0.38049-1.424-0.45308-1.424-1.5902v-1.1916l3.44-0.56018c1.892-0.3081 5.096-0.9768 7.12-1.486 2.024-0.5092 3.7118-0.92621 3.7507-0.92668 0.0389-3.2e-4 0.11088 1.897 0.16 4.2166l0.0893 4.2174 1.2512-2.0287c4.3011-6.9736 10.412-8.5429 12.743-3.2726 2.0615 4.6604-2.9628 9.8501-6.8025 7.0264-2.6363-1.9387-5.0721-1.1783-6.7638 2.1116-0.5936 1.1544-0.62688 1.7767-0.53069 9.92 0.12688 10.741 0.0957 10.668 4.8226 11.254l1.84 0.22809v2.8062h-10.827c-5.9547 0-10.923-0.096-11.04-0.21333zm32.427-1.185v-1.3984l1.9236-0.37845c3.1641-0.6225 3.0364-0.0344 3.0364-13.977 0-13.514 0.12765-12.866-2.6954-13.686-1.3849-0.402-2.5432-2.7619-1.3556-2.7619 1.26 0 11.633-2.0525 13.879-2.7464 0.51168-0.15803 0.55443 0.86735 0.64 15.345 0.10634 17.988-0.0819 16.956 3.2408 17.758l1.8109 0.43687v2.8063h-20.48zm59.093 1.185c-0.11735-0.11733-0.21335-0.7466-0.21335-1.3984v-1.185l1.8995-0.37369c1.0447-0.20553 2.2327-0.6434 2.64-0.97303l0.74054-0.59934 0.1009-11.469c0.12294-13.976-0.0857-14.829-3.6274-14.829-0.33914 0-0.47354-0.36333-0.47354-1.28 0-0.704 0.0624-1.28 0.13869-1.28 0.69731 0 9.2752-1.7546 11.461-2.3444l2.8-0.75544v2.83c0 1.5565 0.0742 2.8299 0.1649 2.8299s1.1347-0.70165 2.32-1.5592c6.7863-4.9099 12.223-5.1792 16.072-0.79592 2.757 3.1401 3.198 5.6554 3.2011 18.26 3e-3 11.644-0.0643 11.408 3.4424 12.1 0.9855 0.19467 1.04 0.27955 1.04 1.62v1.4146h-18.56v-1.3699c0-1.3229 0.0464-1.386 1.3522-1.84 2.1845-0.75951 2.1823-0.74643 2.0898-12.47-0.0776-9.8351-0.11831-10.47-0.74986-11.68-1.5325-2.9372-4.5486-3.5526-8.1842-1.6698l-2.028 1.0502v11.51c0 12.971-0.0409 12.729 2.2502 13.306 1.4207 0.35776 1.4298 0.36894 1.4298 1.762v1.402h-9.5466c-5.2507 0-9.6427-0.096-9.76-0.21333zm108.91-1.204v-1.4173l1.7172-0.35649c1.0985-0.22805 1.992-0.64896 2.48-1.1683l0.76282-0.81182 0.0887-21.404c0.10474-25.267 0.26483-24.305-4.0458-24.305-1.297 0-0.96899-2.4834 0.35712-2.7039 0.572-0.0951 2.408-0.39828 4.08-0.67375 2.9838-0.49161 8.2485-1.575 9.3452-1.923 0.52486-0.16659 0.56147 1.2709 0.6456 25.362 0.0491 14.046 0.21466 25.796 0.368 26.11 0.3809 0.78131 1.6731 1.4017 3.4854 1.6735l1.5158 0.2273v2.8073h-20.8zm24 5e-3v-1.4119l1.36-0.22597c3.8088-0.63283 3.8165-0.66415 3.6954-14.91l-0.0954-11.217-0.89652-0.7708c-0.49308-0.42395-1.4651-0.86172-2.16-0.97285-1.1965-0.19131-2.1021-2.6802-0.97529-2.6802 1.2429 0 11.633-2.0585 13.858-2.7455 0.50829-0.15697 0.5522 0.9065 0.64 15.503l0.0943 15.672 0.76281 0.81169c0.48791 0.51915 1.3817 0.94015 2.48 1.1682l1.7172 0.35649v2.8346h-20.48zm81.6 7e-3c0-1.3724 0.0272-1.4091 1.2-1.613 3.7951-0.65975 3.7313-0.4506 3.8609-12.663 0.14832-13.972 7e-3 -14.668-3.0896-15.191-1.8557-0.31351-2.085-2.5744-0.29136-2.8726 0.572-0.0951 2.408-0.3998 4.08-0.67715 2.6834-0.4451 6.7734-1.334 8.88-1.9299l0.72-0.20368v15.248c0 17.717-0.0846 17.132 2.5935 17.927 0.92544 0.27483 1.8725 0.49969 2.1045 0.49969 0.28672 0 0.42192 0.46143 0.42192 1.44v1.44h-20.48zm23.04 0.0105v-1.4028l1.9075-0.37528c3.4873-0.68609 3.2125 1.33 3.2125-23.57 0-24.86 0.10986-24.138-3.6697-24.138-0.72924 0-0.81027-0.12545-0.81027-1.2546 0-1.4264-0.40544-1.2528 4.96-2.1241 2.8934-0.46986 7.7687-1.4941 9.2-1.9328 0.5288-0.16208 0.56 0.8459 0.56 18.09 0 10.044 0.0626 18.262 0.13917 18.262 2.265 0 9.4608-8.6243 9.4608-11.339 0-0.51267-1.5475-1.461-2.3841-1.461-0.41351 0-0.80714-2.4498-0.41591-2.5883 0.044-0.0156 3.9321-0.19558 8.6403-0.4l8.5602-0.37167-2.2e-4 1.2829-2.6e-4 1.2829-2.48 0.56048c-4.9982 1.1296-9.7345 4.7734-12.684 9.7582-0.27078 0.45767 2.1547 4.0771 7.6716 11.448 4.4167 5.901 6.128 7.5662 8.5653 8.3345l1.807 0.56962v2.7631h-14.344l-2.6037-3.8417c-1.4321-2.1129-3.7517-5.6744-5.1548-7.9143-4.7294-7.5504-4.8872-7.5379-4.7305 0.37483 0.14147 7.145 0.26016 7.4269 3.4359 8.1606l1.9885 0.45941-0.191 2.6012-20.64 0.1688v-1.4028zm-289.12-40.331c-3.7575-1.6463-4.7504-6.2405-1.9541-9.0419 4.2579-4.2658 10.775-0.7999 9.6608 5.1379-0.5832 3.1086-4.7289 5.2087-7.7067 3.904zm191.57-0.24097c-5.4012-2.6735-3.3789-10.708 2.6744-10.626 6.0117 0.0819 7.7367 8.2172 2.2689 10.7-1.735 0.78787-3.2472 0.7651-4.9433-0.0744zm81.876 0.17992c-3.1096-1.3488-4.4003-4.852-2.8832-7.8257 2.0746-4.0667 8.3856-3.9968 10.252 0.11356 2.1955 4.8357-2.5498 9.8022-7.3685 7.7121zm-680.97-23.092c0.01-27.558 11.237-58.992 29.296-82.021 25.375-32.359 66.446-53.1 105.15-53.1h2.8335v75.2h-1.7436c-30.074 0-57.852 27.003-59.933 58.263l-0.24346 3.6569-75.36 0.1626 7.7e-4 -2.1613zm207.68 0.30539c0-30.772-29.406-60.171-60.24-60.224l-1.52-0.0026v-75.2h2.9935c3.9972 0 10.249 0.51689 15.726 1.3003 65.704 9.3966 115.71 64.674 118.45 130.94l0.20844 5.04h-75.616zm187.2-9.8458c-6.1623-1.328-5.8113-0.78444-7.481-11.586-0.0872-0.56396 0.0736-0.76519 0.72451-0.90673 0.4601-0.10005 1.0006-0.23126 1.2012-0.29157 0.20055-0.0603 0.67706 0.70771 1.0589 1.7067 3.5652 9.3267 15.069 12.417 18.747 5.0353 2.6332-5.2842 0.47869-8.5106-8.9104-13.343-9.0755-4.6713-11.529-7.4864-11.475-13.168 0.0812-8.6342 10.49-13.585 22.323-10.618l2.2673 0.56857 0.69539 4.6414c0.38246 2.5528 0.65818 4.6769 0.6127 4.7202-0.96816 0.92273-2.3241 0.18391-3.0994-1.6888-3.6183-8.7398-14.927-9.175-16.478-0.63411-0.72304 3.9825 1.5372 6.5414 9.0223 10.215 10.403 5.1051 12.768 7.7048 12.503 13.743-0.38093 8.6675-10.427 14.038-21.711 11.606zm164.08 0.16862c-5.2575-0.88528-9.2653-3.673-11.422-7.9445-1.7018-3.3712-1.9427-5.5559-1.9427-17.616 0-14.165-0.11965-14.708-3.36-15.227-3.0851-0.49467-3.04-0.47291-3.04-1.4675v-0.93458h19.52v0.9404c0 0.87969-0.0981 0.95366-1.52 1.1459-4.7174 0.63782-4.56 0.1543-4.56 14.012 0 12.125 0.23539 14.056 2.141 17.557 4.2091 7.7334 17.232 8.0367 21.633 0.5038 2.1883-3.7449 2.9558-9.349 2.6842-19.599-0.29443-11.11-0.5983-11.735-6.0586-12.474-1.4219-0.19224-1.52-0.26621-1.52-1.1459v-0.9404h17.6v0.94551c0 0.84561-0.12676 0.96548-1.2 1.1346-5.2058 0.82057-5.2356 0.90136-5.5349 15.006-0.26454 12.466-0.52179 14.27-2.589 18.148-3.3297 6.2472-11.79 9.4781-20.832 7.9556zm-200.57-16.01c-8.0073-8.8112-14.962-16.479-15.456-17.04l-0.89722-1.0197 0.15498 13.12c0.20157 17.061 0.50262 18.08 5.341 18.08 1.4427 0 1.8984 0.31548 1.8984 1.3142v0.92577h-17.28v-0.93844c0-1.0096 0.16358-1.106 2.4911-1.4682 1.7123-0.26648 3.1372-1.4363 3.6223-2.9739 0.41299-1.3092 0.82727-28.383 0.46394-30.32-0.43667-2.3276-3.0609-4.3002-6.3373-4.7638-1.4197-0.20088-1.52-0.27711-1.52-1.1555v-0.9404l11.68 0.014 14.72 15.827c8.096 8.705 14.849 15.83 15.007 15.833 0.34356 7e-3 -0.0125-22.721-0.39465-25.202-0.44621-2.8965-1.6711-3.8605-5.5727-4.3862-1.422-0.19158-1.52-0.26537-1.52-1.1452v-0.9404h17.28v0.9404c0 0.87816-0.10057 0.95471-1.52 1.1568-4.9162 0.69988-4.7001-0.3005-4.8186 22.303l-0.0986 18.8h-2.6855l-14.559-16.02zm327.07 15.177c-3.785-1.8861-4.2487-3.4066-4.428-14.517-0.15578-9.6566-0.16352-9.6934-2.1187-10.086-1.9342-0.3881-2.1268-0.50549-2.1268-1.2958 0-0.42814 0.0761-0.77843 0.16909-0.77843 0.66173 0 9.6895-1.0091 10.071-1.1257 0.41978-0.12833 0.48 1.1476 0.48 10.17 0 9.8244 0.0317 10.377 0.6648 11.584 1.6824 3.2072 6.6351 3.6216 10.749 0.89933l1.2265-0.81168v-8.3943c0-9.6439-0.0488-9.833-2.6413-10.236-2.221-0.34537-2.4787-0.47879-2.4787-1.2831 0-0.67778 0.17264-0.77174 1.68-0.91427 0.924-0.0874 3.453-0.35277 5.6199-0.58976 2.1669-0.237 4.0029-0.36788 4.08-0.29084 0.077 0.077 0.14006 5.3001 0.14006 11.607 0 12.855-0.0208 12.741 2.32 12.751 1.9163 8e-3 2.48 0.30651 2.48 1.313 0 0.79252-0.12413 0.92309-0.88 0.92557-0.484 2e-3 -2.464 0.3713-4.4 0.82157s-4.06 0.89993-4.72 0.99924l-1.2 0.18056v-4.5881l-1.9281 1.3093c-5.0056 3.3992-9.1301 4.1593-12.758 2.3513zm-378.91-0.75068c0-1.0326 0.0888-1.0762 2.9462-1.4462 3.4428-0.44574 3.4385-0.42242 3.4385-18.88 0-18.327-9e-3 -18.378-3.2656-18.869-3.0997-0.46778-3.1191-0.47695-3.1191-1.4763v-0.93458h19.84v0.9404c0 0.8806-0.0966 0.95304-1.52 1.1394-5.3055 0.69479-5.04-0.31664-5.04 19.2 0 19.146-0.0246 19.04 4.4603 19.04 1.6497 0 2.0997 0.28166 2.0997 1.3142v0.92577h-19.84zm124.8 0c0-1.0369 0.11661-1.0927 2.9655-1.4201 4.2283-0.48586 4.0745 0.28407 4.0745-20.394v-17.232l-4.24 2e-3c-7.1573 3e-3 -8.1422 0.59017-9.8484 5.8714l-0.69831 2.1615-1.1666-0.0973c-0.94573-0.0789-1.1553-0.21853-1.1065-0.73733 0.0331-0.352 0.23513-3.052 0.44899-6 0.43651-6.0171 0.62297-6.3164 2.8907-4.64l0.97396 0.72h32.855l0.76633-0.72c0.46365-0.43561 1.169-0.72 1.7857-0.72h1.0194l3e-3 2.16c0 1.188 0.148 3.8015 0.32557 5.8077 0.1776 2.0062 0.28435 3.6845 0.23728 3.7294-0.9737 0.92956-2.2767 0.18803-2.8416-1.6172-1.6121-5.151-2.5206-5.7222-9.3344-5.8683l-5.0505-0.10831 0.0905 17.605c0.10704 20.831-0.0834 20.078 5.1043 20.187 1.756 0.0368 2.1862 0.30021 2.1862 1.3388v0.92576h-21.44v-0.9539zm36.48 0c0-1.0336 0.0855-1.0754 2.966-1.4491 0.91529-0.11874 1.8758-0.49885 2.4-0.94976l0.87402-0.75179v-17.114c0-20.18 0.39642-18.563-4.72-19.255-1.4219-0.19224-1.52-0.26621-1.52-1.1459v-0.9404h19.84v0.9404c0 0.8806-0.0966 0.95304-1.52 1.1394-5.1242 0.67091-4.8789-0.2908-4.8795 19.13 0 19.058-0.11289 18.46 3.5594 18.96 2.7702 0.37661 2.8401 0.41192 2.8401 1.4361v0.95391h-19.84zm35.2 0.0281c0-1.0604 0.42618-1.3035 2.3462-1.3386 5.0076-0.0914 4.8366 0.60619 4.9491-20.187l0.0953-17.605-5.0553 0.1094c-6.8497 0.14822-7.3468 0.43762-9.0476 5.267-0.88118 2.5021-0.89635 2.5211-2.0965 2.6226l-1.2089 0.10223 0.2182-2.5022c0.12-1.3762 0.308-4.1222 0.41776-6.1022 0.22522-4.062 0.58458-4.4451 2.7015-2.88l0.97385 0.72h32.853l0.97385-0.72c2.0942-1.5483 2.4778-1.1646 2.7199 2.72 0.11792 1.892 0.30234 4.538 0.40983 5.88l0.19542 2.44-2.3176 0.27056-0.51328-1.7657c-1.5476-5.3238-2.8198-6.1049-9.9422-6.1049h-4.5923l0.0141 15.6c0.0205 22.844-0.41856 21.327 6.466 22.334 1.0764 0.15731 1.2 0.27282 1.2 1.1209v0.94554h-21.76v-0.92577zm100.48-0.0281c0-1.0369 0.1166-1.0927 2.9655-1.4201 4.2075-0.48347 4.0705 0.2098 4.0727-20.614l3e-3 -17.068-5.04 0.11155c-6.762 0.14966-7.5333 0.66003-9.2251 6.1047-0.56684 1.8242-0.58236 1.84-1.8092 1.84h-1.2374l0.18189-1.84c0.22454-2.2713 0.80208-9.3743 0.80659-9.92 5e-3 -0.6636 1.6692-0.44965 2.4884 0.32l0.76634 0.72h32.855l0.97395-0.72c2.4542-1.8143 2.729-1.2947 3.0887 5.84 0.10647 2.112 0.27165 4.164 0.36708 4.56 0.15766 0.65443 0.0584 0.72-1.0906 0.72h-1.264l-0.58935-1.9464c-1.4791-4.8852-2.5367-5.5389-9.192-5.6817l-5.04-0.10812v17.26c0 20.796-0.16614 19.999 4.2572 20.434 2.9525 0.29016 3.1028 0.35838 3.1028 1.4084v0.95391h-21.44v-0.95391zm51.899 0.0974c0.0906-0.76695 0.29452-0.89495 1.9489-1.2236 3.0522-0.60641 3.0457-0.57735 3.0854-13.84l0.027-9.04h-2.56c-2.8755 0-3.1511-0.27573-1.68-1.6807 0.66266-0.63289 1.2751-0.86501 2.48-0.93987l1.6-0.0994 0.19156-2.8004c0.68105-9.9573 13.242-17.92 19.408-12.304 1.1298 1.029 0.96669 2.5013-0.41113 3.7111-1.4056 1.2341-1.4903 1.2323-3.306-0.0724-6.2611-4.499-9.6327-1.5243-9.6404 8.5055l-3e-3 3.12h8.32v0.896c0 1.5006-0.44627 1.664-4.544 1.664h-3.776l0.032 10c0.0402 12.616-4e-3 12.47 3.9681 12.962 1.788 0.22163 1.927 0.29851 2.0212 1.118l0.10125 0.88h-17.365l0.10124-0.85656zm59.141-0.10349c0-0.7817 0.13373-0.96034 0.72-0.96179 3.65-9e-3 3.76-0.3446 3.76-11.472 0-10.414 0.0782-10.077-2.48-10.681-1.982-0.46787-2.4654-1.6794-0.8-2.0049 1.619-0.31639 8.5531-2.0243 9.1085-2.2434 0.49235-0.19428 0.55782 0.11021 0.64 2.9768l0.0915 3.1932 1.7612-2.1104c3.9179-4.6948 8.87-5.5248 10.447-1.7509 1.0446 2.5001-2.7321 6.0657-4.3544 4.111-1.2369-1.4903-3.8665-1.33-5.5867 0.34057-2.297 2.2308-2.4308 2.8046-2.395 10.27 0.0424 8.8434 0.0568 8.877 3.9831 9.2822 1.6646 0.1718 1.745 0.22226 1.745 1.0953v0.91524h-16.64zm-29.516-33.141c-3.131-1.6989-1.6607-6.0591 2.0432-6.0591 1.4087 0 1.7196 0.12797 2.539 1.045 2.721 3.0453-0.90272 7.0105-4.5822 5.014zm12.164 2e-3c-2.6008-1.4114-1.8179-5.3344 1.2166-6.096 2.8108-0.70546 5.3252 2.4725 3.9659 5.0125-0.77165 1.4418-3.4791 2.0078-5.1825 1.0835z"/>
   <path d="m7.9956 145.67c1.3177-27.253 14.694-59.086 33.934-80.756 23.878-26.894 59.762-44.759 93.54-46.569l8.4203-0.45125v74.945h-4.3204c-8.4069 0-20.311 4.2203-29.606 10.496-5.3389 3.6047-14.954 13.866-18.293 19.523-5.4425 9.2204-9.1394 20.605-9.1706 28.24l-0.01284 3.1441h-27.255c-14.99 0-31.855 0.22059-37.477 0.4902l-10.221 0.49021z" fill="#00988c" fill-rule="evenodd"/>
   <path d="m137.97 298.76c-44.891-3.062-83.693-25.569-108.21-62.767-12.424-18.85-20.585-43.205-21.753-64.917l-0.46749-8.6926h74.945v3.7379c0 6.1282 2.1146 13.927 5.9071 21.785 9.5322 19.751 29.417 33.999 50.618 36.27l4.8778 0.52236v37.273c0 35.055-0.0771 37.266-1.2946 37.144-0.71205-0.0711-2.7927-0.23143-4.6237-0.35631z" fill="#0d3857" fill-rule="evenodd"/>
   <path d="m153.51 261.98v-37.279l6.0192-0.88013c10.484-1.5329 19.859-5.089 28.011-10.625 4.9201-3.341 13.031-11.34 16.717-16.486 6.2567-8.7351 10.655-21.12 10.655-30.001v-4.3204h74.719l-3e-3 5.7334c-1e-3 3.1534-0.51552 8.896-1.142 12.761-6.7868 41.877-29.778 76.333-65.437 98.068-19.499 11.885-39.801 18.28-63.067 19.867l-6.4732 0.44136z" fill="#86ba3c" fill-rule="evenodd"/>
   <path d="m214.91 150.67c0-16.59-12.104-36.627-29.083-48.144-7.8556-5.3284-20.606-9.6781-28.369-9.6781h-3.9505v-74.719l4.6237 0.01355c5.3074 0.01556 17.424 1.6339 24.761 3.3071 12.556 2.8635 28.874 9.4872 40.418 16.407 16.943 10.155 33.804 26.549 44.731 43.492 11.768 18.247 20.117 42.917 21.27 62.856 0.21377 3.6947 0.53071 7.633 0.70432 8.752l0.31566 2.0344h-75.422z" fill="#003c36" fill-rule="evenodd"/>
  </g>
 </g>
</svg>
