<svg fill="currentColor" viewBox="0 0 176.8 48.18" xmlns="http://www.w3.org/2000/svg"><path d="M14.29 15.16c.06.14.05.31-.01.46-.05.11-.13.2-.23.26-.16.09-.35.11-.53.02-.11-.05-.2-.13-.26-.23-.09-.16-.11-.35-.02-.53l-.33-.15c-.14.29-.11.61.04.87.09.16.24.3.42.38.29.13.61.11.87-.04.16-.09.3-.24.38-.42.11-.24.11-.51.02-.74zm.68-1.67c.02.15-.02.31-.12.44-.08.1-.18.16-.29.2-.17.05-.37.02-.52-.1-.1-.08-.16-.18-.2-.29-.05-.17-.02-.37.1-.52l-.28-.22c-.2.25-.25.57-.16.85.05.18.16.34.32.47.25.2.57.24.85.16.18-.05.34-.16.46-.32.16-.21.23-.47.19-.72zm.95-1.14c-.1.08-.21.12-.32.13-.18.01-.37-.06-.49-.21-.08-.1-.12-.21-.13-.32-.01-.18.06-.37.21-.49l-.23-.28c-.25.2-.37.5-.35.8.01.19.08.37.21.52.2.25.5.37.8.35.19-.01.37-.08.52-.21.21-.17.33-.41.35-.65l-.36-.05c-.01.16-.08.3-.21.41m1.18-1.36c-.11.05-.23.07-.34.05-.18-.03-.34-.14-.43-.32-.05-.11-.07-.23-.05-.34.03-.18.14-.34.32-.43l-.16-.33c-.29.14-.47.41-.52.7-.03.18 0 .38.08.56.14.29.41.47.7.52.18.03.38 0 .56-.08.24-.12.41-.32.48-.56l-.35-.11c-.04.14-.15.26-.29.34m1.46-1.13c-.12.03-.24.02-.34-.03-.17-.07-.3-.21-.35-.4-.03-.12-.02-.24.03-.35.07-.17.21-.3.4-.35l-.08-.35c-.31.07-.55.29-.66.56-.07.17-.09.37-.04.56.07.31.29.55.56.66.17.07.37.09.56.04.26-.06.47-.22.6-.44l-.31-.19c-.08.15-.21.25-.37.29m1.59-.81c-.12 0-.24-.04-.33-.1-.15-.1-.25-.28-.25-.47 0-.12.04-.24.1-.33.1-.15.28-.25.47-.25v-.36c-.32 0-.6.16-.77.4-.11.15-.17.34-.17.54 0 .32.16.6.4.77.15.11.34.17.54.17.27 0 .51-.11.68-.29l-.26-.25c-.09.1-.24.17-.41.17m1.65-.57c-.12-.03-.22-.09-.3-.18-.12-.14-.18-.32-.13-.52.03-.12.09-.22.18-.3.14-.12.32-.18.52-.13l.08-.35c-.31-.07-.62.02-.84.22-.14.12-.24.29-.29.49-.07.31.02.62.22.84.12.14.29.24.49.29.26.06.52.01.73-.13l-.2-.3c-.14.07-.3.11-.46.07m12.35 7.39c-.1-.06-.18-.14-.23-.25-.08-.16-.08-.32-.02-.46l-.34-.13c-.09.23-.09.5.02.74.08.18.22.32.38.42.26.15.58.17.87.04.18-.08.32-.22.42-.38.15-.26.17-.58.04-.87l-.33.15c.08.18.07.37-.02.53-.06.1-.14.18-.26.23-.18.08-.38.07-.53-.02m-.82-1.94c-.1-.13-.14-.29-.12-.44l-.36-.05c-.04.25.03.5.19.72.12.16.29.27.46.32.28.09.6.04.85-.16.16-.12.27-.29.32-.47.09-.28.04-.6-.16-.85l-.28.22c.12.15.15.35.1.52-.03.11-.1.21-.2.29-.15.12-.35.15-.52.1-.1-.04-.2-.1-.28-.2m-1.28-1.99-.36.03c.02.25.14.49.35.65.16.13.34.19.52.21.29.02.6-.1.8-.35.13-.16.19-.34.21-.52.02-.3-.1-.6-.35-.8l-.23.28c.15.12.23.31.21.49-.01.11-.05.23-.13.32-.12.15-.31.22-.49.21-.11-.01-.23-.05-.32-.13-.13-.09-.2-.23-.21-.39m-.56-.54c.29-.05.56-.23.7-.52.09-.18.11-.37.08-.56-.05-.29-.23-.56-.52-.7l-.16.33c.18.08.29.25.32.43.02.11 0 .23-.05.34-.09.18-.25.29-.43.32-.11.02-.23 0-.34-.05-.15-.07-.25-.2-.3-.34l-.35.11c.08.24.24.44.48.56.19.08.38.11.57.08m-.86-2.45c-.11-.27-.35-.49-.66-.56l-.08.35c.19.04.34.18.4.35.04.11.06.22.03.34-.04.19-.18.34-.35.4-.11.04-.22.05-.34.03-.16-.04-.29-.14-.37-.27l-.31.19c.13.21.34.38.6.44.19.04.39.03.56-.04.27-.11.49-.35.56-.66.05-.2.03-.4-.04-.57M28.8 7.93c-.17-.24-.45-.4-.77-.4v.36c.2 0 .37.1.47.25.07.09.1.21.1.33 0 .2-.1.37-.25.47-.09.07-.21.1-.33.1-.17 0-.31-.07-.42-.18l-.26.25c.17.18.41.29.68.29.2 0 .39-.06.54-.17.24-.17.4-.45.4-.77.01-.19-.05-.38-.16-.53m-1.92-.71c-.22-.2-.53-.29-.84-.22l.08.35c.19-.04.38.01.52.13.09.08.15.18.18.3.04.19-.01.38-.13.52-.08.08-.18.15-.3.18-.16.04-.32 0-.45-.08l-.2.3c.21.14.47.19.73.13.19-.05.36-.15.49-.29.2-.22.29-.53.22-.84-.06-.19-.16-.35-.3-.48"/><path d="M24.09 0C10.8 0 0 10.81 0 24.09s10.81 24.09 24.09 24.09c13.29 0 24.09-10.81 24.09-24.09S37.38 0 24.09 0m0 47.46C11.21 47.46.73 36.98.73 24.1S11.21.74 24.09.74 47.45 11.22 47.45 24.1 36.97 47.46 24.09 47.46"/><path d="m13.24 25.7-.93 1.61h1.86zm-.6 1.41.6-1.03.6 1.03zm.6 2.07h.01c.45 0 .81-.36.81-.81s-.36-.81-.81-.81h-.02c-.45 0-.81.36-.81.81s.36.81.81.81h.01m-.61-.81c0-.34.27-.61.61-.62.34.01.61.28.61.62s-.27.61-.61.62c-.34-.01-.61-.29-.61-.62m7.38-23.63c.43 0 .83-.24 1.05-.43l-.19-.22c-.03.03-.81.7-1.39.13-.19-.18-.25-.5-.17-.79.1-.33.37-.56.75-.64.7-.13 1.27.34 1.89.83.14.11.29.23.43.34.62.46 1.35.46 1.72.46s1.09 0 1.72-.46c.14-.11.29-.22.43-.34.61-.49 1.19-.96 1.89-.83.38.07.65.3.75.64.09.29.02.6-.17.79-.58.57-1.36-.1-1.39-.13l-.19.22c.22.19.62.43 1.05.43.25 0 .51-.08.74-.31.27-.26.36-.68.24-1.08-.13-.44-.49-.75-.98-.84-.83-.16-1.49.37-2.13.89-.14.11-.28.23-.42.33-.3.22-.65.33-.95.37.3-.23.49-.57.52-.95.03-.44-.16-.85-.49-1.03-.33-.19-.66-.23-.96-.13-.55.17-.83.74-.85.77l.26.13s.24-.48.67-.61c.23-.07.47-.03.73.11.23.13.36.42.34.75-.03.42-.31.77-.74.93-.1.04-.19.07-.32.08-.34-.01-.86-.08-1.29-.4-.14-.1-.28-.22-.42-.33-.64-.52-1.3-1.05-2.13-.89-.49.09-.85.4-.98.84-.12.4-.02.82.24 1.08.23.21.49.29.74.29M10.1 37.48c-.06-.17-.24-.25-.41-.2-.17.06-.26.24-.2.41.06.16.24.26.41.2s.25-.24.2-.41m-2.21 1.67c-.17.06-.26.24-.2.41.06.16.24.26.41.2s.25-.25.2-.41c-.06-.17-.24-.26-.41-.2m1.42.3c-.17-.03-.34.08-.38.25-.03.17.09.34.25.38.17.03.34-.08.38-.25.04-.18-.07-.35-.25-.38m-1.09-2.24c-.03.17.09.34.25.38.17.03.34-.08.38-.25.03-.17-.08-.34-.25-.38-.17-.03-.34.08-.38.25m-.37.75c-.13-.12-.34-.1-.45.03-.12.13-.1.34.03.45s.34.1.45-.03c.11-.12.1-.33-.03-.45m2.06.66c-.12.13-.1.34.03.45s.34.1.45-.03.1-.34-.03-.45c-.13-.12-.34-.1-.45.03m-1.62-.71c-.33.33-.33.87 0 1.2s.87.33 1.2 0 .33-.87 0-1.2-.87-.33-1.2 0m1.07 1.07c-.26.26-.67.26-.93 0s-.26-.67 0-.93.67-.26.93 0c.25.25.25.67 0 .93m3.4.99c-.15.09-.2.29-.11.44s.29.2.44.11.2-.29.11-.44-.29-.2-.44-.11m-1.39 2.18c-.15.09-.2.29-.11.44s.29.2.44.11.2-.29.11-.44-.29-.2-.44-.11m1.45.01c-.17 0-.32.15-.32.32 0 .18.15.32.32.32.18 0 .32-.15.32-.32 0-.18-.14-.32-.32-.32m-1.52-1.97c0 .18.15.32.32.32.18 0 .32-.15.32-.32 0-.18-.15-.32-.32-.32s-.32.14-.32.32m-.21.81c-.15-.09-.35-.03-.44.12s-.03.35.12.44.35.03.44-.12c.08-.15.03-.35-.12-.44m2.59.11c-.15-.09-.35-.03-.44.12s-.03.35.12.44.35.03.44-.12c.08-.15.03-.35-.12-.44m-.75.69c.26-.39.15-.92-.24-1.18s-.92-.15-1.18.24-.15.92.24 1.18.92.15 1.18-.24m-1.07.08c-.3-.2-.39-.61-.19-.91s.61-.39.91-.19.39.61.19.91-.61.39-.91.19m26.83-4.19c.06-.17-.03-.35-.2-.41s-.35.03-.41.2c-.06.16.03.35.2.41s.36-.04.41-.2m1.6 1.46c-.17-.06-.35.03-.41.2-.06.16.03.35.2.41s.35-.04.41-.2c.06-.17-.03-.35-.2-.41m-1.42.3c-.17.03-.29.2-.25.38.03.17.2.29.38.25.17-.03.29-.2.25-.38-.04-.17-.21-.28-.38-.25m.46-2.12c.03.17.2.29.38.25.17-.03.29-.2.25-.38-.03-.17-.21-.29-.38-.25s-.28.21-.25.38m1 .63c-.13.12-.14.32-.03.45s.32.15.45.03.15-.32.03-.45c-.11-.12-.31-.14-.45-.03m-2.51.63c-.13.12-.14.32-.03.45s.32.15.45.03.15-.32.03-.45c-.11-.13-.32-.15-.45-.03m2.07-.68c-.33-.33-.87-.33-1.2 0s-.33.87 0 1.2.87.33 1.2 0 .33-.86 0-1.2m-1.06 1.07c-.26-.26-.26-.67 0-.93s.67-.26.93 0 .26.67 0 .93-.68.26-.93 0m-3.84 1.1c-.09.15-.04.35.11.44s.35.03.44-.11c.09-.15.04-.35-.11-.44s-.35-.04-.44.11m1.83 2.07c-.15-.09-.35-.04-.44.11s-.04.35.11.44.35.03.44-.11c.09-.15.04-.35-.11-.44m-1.46.01c-.18 0-.32.14-.32.32s.14.32.32.32c.17 0 .32-.14.32-.32 0-.17-.14-.32-.32-.32m.88-1.98c0 .18.14.32.32.32.17 0 .32-.14.32-.32s-.15-.32-.32-.32-.32.15-.32.32m.85.82c-.15.09-.2.29-.12.44.09.15.28.21.44.12.15-.09.21-.28.12-.44-.08-.15-.28-.21-.44-.12m-2.58.11c-.15.09-.2.29-.12.44.09.15.28.21.44.12.15-.09.21-.28.12-.44-.09-.15-.29-.21-.44-.12m2.16-.25c-.26-.39-.78-.5-1.18-.24-.39.26-.5.78-.24 1.18.26.39.78.5 1.18.24.39-.26.5-.79.24-1.18m-.34 1.02c-.3.2-.71.12-.91-.19-.2-.3-.12-.71.19-.91.3-.2.71-.12.91.19.19.3.11.71-.19.91M9.91 21.95l-.11.06c-.1.05-.49.25-.92.53-.04-.18-.11-.46-.27-.74-.13-.23-.4-.55-.53-.7.1-.16.34-.53.69-.88.48-.48 1.04-.81 1.04-.81l-.15-.25c-.02.01-.6.35-1.1.86-.49.49-.78 1.01-.79 1.03l-.05.09.07.08s.42.46.57.73c.18.32.24.65.26.78-.56.4-1.1.9-1.1 1.38s.54.98 1.1 1.38c-.02.13-.08.45-.26.78-.15.27-.56.72-.57.73l-.07.08.05.09c.01.02.29.54.79 1.03.5.5 1.08.84 1.1.86l.15-.25c-.01 0-.57-.34-1.04-.81-.35-.35-.59-.71-.69-.88.13-.15.41-.47.53-.7.16-.28.23-.56.27-.74.44.28.83.48.92.53l.11.06.07-.1c.03-.04.63-.93.63-2.04s-.6-2-.63-2.03zm-.65 1.45.88-.32c.08.26.15.55.17.87h-.99v.29h.99c-.02.32-.09.62-.17.87l-.88-.32-.1.28.88.32c-.09.21-.17.37-.23.47-.66-.34-2.01-1.17-2.01-1.76 0-.6 1.35-1.42 2.01-1.76.06.1.15.26.23.47l-.88.32zm30.58 2.85c-.18-.32-.24-.65-.26-.78.56-.4 1.1-.9 1.1-1.38s-.54-.98-1.1-1.38c.02-.12.08-.45.26-.78.15-.27.56-.72.57-.73l.07-.08-.05-.09c-.01-.02-.29-.54-.79-1.03-.5-.5-1.08-.84-1.1-.86l-.15.25c.01 0 .57.34 1.04.81.35.35.59.71.69.88-.13.15-.41.47-.53.7-.16.28-.23.56-.27.74-.44-.28-.83-.48-.92-.53l-.11-.06-.07.1c-.03.04-.63.92-.63 2.03s.6 2.01.63 2.04l.07.1.11-.06c.1-.05.49-.25.92-.53.04.18.11.46.27.74.13.23.4.55.53.7-.1.16-.34.53-.69.88-.48.48-1.04.81-1.04.81l.15.25c.02-.01.6-.35 1.1-.86.49-.49.78-1.01.79-1.03l.05-.09-.07-.08c0 .04-.42-.41-.57-.68m-1.46-.39c-.06-.1-.15-.26-.23-.47l.88-.32-.1-.28-.88.32c-.09-.26-.16-.55-.17-.87h.99v-.29h-.99c.02-.32.09-.62.17-.87l.88.32.1-.28-.88-.32c.09-.21.17-.37.23-.47.65.34 2.01 1.17 2.01 1.76 0 .6-1.35 1.43-2.01 1.77m-3.34-2.82h-.18v2.35h.18zm-.18 10.65h.18v-2.34h-.18zm-.84-6.39h1.86l-.93-1.61zm.33-.19.6-1.04.6 1.04zm.6 3.93.93-1.61h-1.86zm0-.38-.6-1.04h1.2zm.82-2.29c0-.45-.36-.81-.81-.81s-.81.36-.81.81.36.81.81.81.81-.37.81-.81m-1.43 0c0-.34.28-.62.62-.62s.62.28.62.62-.28.62-.62.62-.62-.28-.62-.62m-21.01-2.98v-2.35h-.19v2.35zm-.18 5.96h-.01v2.34h.19v-2.34zm-.84-1.92.93 1.61.93-1.61zm.93 1.23-.6-1.03h1.19zm19.12 12.63c-.25-.05-.51-.06-.72-.11s-.34-.12-.41-.29c-.02-.05-.03-.09-.03-.13 0-.15.1-.31.36-.41.11-.05.21-.06.29-.06.27 0 .42.2.52.35l.05.07.29-.12-.38-.85-.08.01c-.16.02-.47.06-.81.19-.26.11-.48.23-.64.4-.16.16-.26.37-.26.6 0 .12.03.25.08.38.13.32.39.47.67.55.23.06.53.07.79.11.13.02.25.05.34.09s.15.1.17.17c.01.03.02.07.02.1 0 .12-.09.27-.33.37-.1.04-.18.05-.24.05-.21 0-.34-.14-.43-.3l-.04-.08-.3.12.04.1.32.71.08-.02c.13-.03.44-.09.73-.2.49-.2.79-.52.79-.91 0-.11-.02-.22-.07-.33-.14-.36-.48-.5-.8-.56m5.06-34.46.04-.07-.22-.23-.63.68.04.07c.08.14.23.41.5.68.28.28.58.47.89.5.24.02.49-.07.7-.28.16-.16.23-.35.25-.54.01-.1 0-.2-.01-.3-.02-.18-.1-.38-.16-.59-.06-.2-.11-.4-.1-.55.01-.09.03-.15.09-.21s.13-.09.22-.08.21.06.33.18c.15.16.18.28.18.4-.01.11-.07.22-.14.32l-.05.07.23.23.07-.08.53-.57-.05-.07c-.08-.11-.25-.37-.47-.59-.26-.26-.52-.41-.79-.43-.23-.02-.45.07-.63.24-.16.16-.23.35-.25.54-.01.15.01.29.04.44.08.35.22.69.2.93-.01.1-.04.18-.12.26s-.17.11-.28.1-.23-.07-.36-.19c-.18-.19-.22-.34-.21-.48.02-.15.1-.28.16-.38M3.76 32.98c0-.04 0-.04.04-.07.03-.03.1-.07.21-.11l1.8-.72c.11-.05.19-.07.23-.07s.04 0 .07.03.06.09.09.18l.04.09.3-.12-.04-.1-.51-1.27-.29.12.04.09c.04.09.05.16.05.19 0 .04-.01.04-.04.08-.03.03-.1.07-.21.11l-1.8.73c-.11.05-.19.07-.23.07s-.05-.01-.07-.03c-.03-.03-.06-.08-.09-.17l-.04-.09-.29.12.55 1.36.29-.12-.04-.09c-.04-.11-.06-.18-.06-.21m3.94 1.23-.04-.06-.24-.4-2.72.5c-.08.02-.14.02-.19.02-.07 0-.1-.01-.14-.04s-.08-.08-.14-.17l-.05-.09-.27.16.68 1.14.27-.17-.05-.09c-.08-.12-.1-.21-.1-.23s0-.01.02-.03c.02-.01.07-.03.19-.05l1.77-.33-1.14 1.37c-.08.09-.11.12-.14.14-.02.01-.02.01-.03.01 0 0-.01 0-.04-.03-.03-.02-.06-.07-.1-.14l-.05-.09-.27.16.77 1.27.27-.17-.05-.09c-.07-.12-.1-.19-.09-.23 0-.06.05-.15.19-.32zm-4.84-3.6c0-.06.01-.06.04-.09s.11-.06.23-.09l1.88-.47c.09-.02.16-.03.21-.03.06 0 .07.01.09.03.02.03.05.09.08.2l.02.1.31-.07-.02-.1-.55-2.23-.84.17.08.33.1-.02c.05-.01.09-.01.12-.01.08 0 .13.02.18.07s.1.13.13.28l.1.4c.02.06.02.11.02.13 0 .03 0 .01-.01.03-.02.01-.08.04-.19.06l-.81.2-.12-.47c-.01-.06-.02-.11-.02-.14 0-.06.01-.06.03-.08.03-.02.09-.05.19-.07l.1-.02-.08-.32-1.1.27.08.32.1-.02c.08-.02.14-.03.18-.03.05 0 .05.01.06.02.02.02.04.08.07.17l.12.47-.67.17c-.07.02-.12.02-.15.02-.04 0-.05-.01-.06-.02s-.03-.05-.05-.12l-.07-.28c-.03-.1-.04-.18-.04-.25 0-.11.03-.16.07-.2s.11-.07.19-.1l.09-.03-.08-.32-.83.24.56 2.26.31-.08-.02-.1c-.02-.08-.03-.14-.03-.18M8.46 8.3c.11-.1.17-.13.2-.12.02 0 .04 0 .08.03s.09.07.15.14l1.3 1.44c.12.13.15.2.15.23s-.03.09-.15.19l-.08.07.21.23.08-.07 1.01-.91-.21-.24-.08.07c-.11.1-.17.13-.2.12-.02 0-.04-.01-.08-.03-.04-.03-.09-.07-.15-.14l-1.3-1.44c-.12-.13-.15-.2-.15-.23s.03-.09.14-.19l.08-.07-.21-.24-1.09.98.21.24zm-6.4 18.83v-.08c0-.12.02-.15.04-.17s.11-.05.26-.06l1.93-.15h.09c.13 0 .17.02.19.04s.05.09.06.22l.01.1.32-.03-.01-.1-.09-1.15-.32.03.01.1v.08c0 .12-.02.15-.04.17s-.11.05-.26.06l-1.65.13 2.18-1.5-.04-.59-2.57.2c-.04 0-.07.01-.1.01-.13 0-.17-.02-.19-.04s-.05-.09-.05-.23l-.01-.1-.32.03.1 1.25.32-.02-.01-.1v-.08c0-.12.02-.15.04-.17s.11-.05.26-.06l1.52-.12-2.06 1.42.08 1.04.32-.02zm9.56-19.82h.09c.26-.01.51-.06.72-.06s.36.04.46.19c.04.06.07.13.07.2 0 .13-.07.27-.26.41-.15.11-.28.14-.38.14-.2 0-.36-.13-.47-.23l-.06-.05-.26.18.56.74.07-.03c.15-.06.45-.16.75-.37.4-.28.67-.61.68-.99 0-.18-.06-.36-.19-.53-.2-.28-.49-.37-.78-.38h-.05c-.27 0-.61.08-.88.08-.2 0-.35-.04-.42-.15-.03-.05-.05-.1-.05-.15 0-.11.07-.25.25-.37.13-.09.23-.12.32-.12.16 0 .29.1.39.2l.06.06.27-.19-.06-.09-.47-.62-.08.03c-.12.06-.41.18-.66.36-.37.26-.59.57-.59.9 0 .16.05.32.16.47.19.3.51.38.81.37m-5.16 4.1c.17.14.36.19.54.19.15 0 .3-.04.45-.08.34-.12.67-.29.91-.29.1 0 .18.02.26.09.09.07.13.16.13.27 0 .1-.04.23-.15.37-.17.21-.32.26-.46.26s-.28-.06-.39-.11l-.07-.04-.2.25.74.56.06-.04c.13-.09.39-.28.62-.56.24-.3.4-.61.41-.92 0-.25-.12-.49-.36-.69-.17-.14-.36-.19-.54-.19-.1 0-.21.02-.31.04-.18.04-.38.14-.57.22-.2.08-.39.15-.54.15-.09 0-.15-.02-.21-.06-.07-.06-.1-.12-.1-.22 0-.09.04-.21.15-.35.14-.17.27-.21.38-.22.11 0 .23.05.32.1l.08.05.21-.25-.09-.06-.63-.47-.06.05c-.1.09-.34.29-.54.53-.23.28-.35.55-.35.81 0 .23.11.45.31.61m-4.57 11.3c.02-.12.04-.19.06-.21s.04-.04.13-.04c.04 0 .1 0 .17.01l1.92.27c.14.02.22.04.25.07.03.02.04.04.04.12 0 .03 0 .08-.01.13l-.01.1.31.05.01-.1.16-1.14-.31-.05-.01.1c-.02.12-.04.19-.06.21s-.04.03-.12.04c-.04 0-.1-.01-.17-.02l-1.64-.23 2.45-1 .08-.58-2.55-.36c-.14-.02-.22-.04-.25-.07-.03-.02-.04-.03-.04-.12 0-.04 0-.08.01-.14l.01-.1-.32-.04-.18 1.24.32.04.01-.1c.02-.12.04-.19.06-.21s.04-.04.13-.04c.04 0 .1.01.16.01l1.51.21-2.31.94-.15 1.04.31.04zm.73-4.34c.03-.1.06-.16.09-.19.02-.03.03-.03.08-.03.04 0 .12.02.22.05l1.84.6c.11.04.19.07.22.1s.03.04.04.08c0 .04-.01.1-.04.19l-.03.1.3.1.03-.1.71-2.18-.81-.3-.1.32.09.03c.09.03.15.07.19.12.04.04.06.09.06.17 0 .06-.01.13-.04.22l-.13.39c-.02.07-.04.12-.05.13s0 0-.02.01c-.03 0-.09-.01-.19-.05l-.79-.26.15-.46c.03-.09.06-.14.08-.16s.03-.02.07-.03c.04 0 .1.01.18.04l.1.03.1-.31-1.08-.35-.1.31.1.03c.1.03.16.06.18.08s.02.02.03.06c0 .03-.01.09-.04.17l-.15.46-.66-.21c-.08-.03-.14-.05-.16-.07s-.02-.02-.02-.05c0-.02.01-.06.02-.11l.09-.27c.05-.17.11-.26.17-.31.05-.05.09-.06.16-.06.05 0 .1.01.16.02l.09.02.1-.32-.83-.23-.72 2.21.3.1zm1.27-3.55c.04-.08.08-.13.11-.16s.04-.03.07-.03c.04 0 .12.03.24.09l1.7.94c.09.05.15.09.18.13.03.03.03.05.04.07 0 .03-.02.1-.08.2l-.05.09.28.15.05-.09.56-1.01-.28-.16-.05.09c-.04.08-.08.13-.11.16s-.04.03-.07.03c-.04 0-.12-.03-.24-.09l-1.44-.8 2.64-.05.29-.52-2.25-1.25c-.09-.05-.15-.09-.19-.12-.03-.03-.03-.05-.04-.07 0-.03.02-.1.08-.2l.05-.09-.28-.15-.61 1.1.28.15.05-.09c.04-.08.08-.13.11-.16s.04-.03.07-.03c.04 0 .12.03.24.09l1.34.74-2.5.05-.51.91.27.17zm14.22 27.62-.1.3.1.03c.1.03.16.06.18.08.03.03.03.03.03.08 0 .04-.01.12-.05.23l-.59 1.85c-.03.11-.07.18-.1.22-.03.03-.04.04-.08.04s-.1-.01-.19-.04l-.1-.03-.1.3 1.4.45.1-.3-.1-.03c-.1-.03-.16-.06-.19-.08s-.03-.03-.03-.07.01-.12.05-.23l.59-1.85c.04-.11.07-.18.1-.22.03-.03.03-.04.08-.04.04 0 .1.01.19.04l.1.03.1-.3-.1-.03zm-2.35-.9-.13.29.09.04c.09.04.14.07.17.1s.03.04.03.07c0 .04-.02.12-.07.23l-.79 1.77c-.04.1-.08.17-.11.2s-.04.03-.07.04c-.03 0-.1-.02-.2-.06l-.09-.04-.13.29 1.34.6.13-.29-.09-.04c-.09-.04-.14-.07-.17-.1s-.03-.04-.03-.07c0-.04.02-.12.07-.24l.79-1.77c.04-.1.08-.17.11-.2s.04-.03.07-.04c.03 0 .1.02.2.06l.09.04.13-.29-.09-.04zm5.99 1.76c-.18-.02-.34-.04-.5-.03-.32.01-.61.09-.83.32s-.37.58-.44 1.11c-.02.17-.03.33-.03.47.01.46.16.78.42.98.25.2.59.29.96.34l1.26.17.04-.31-.1-.01c-.12-.01-.19-.04-.21-.06s-.03-.03-.04-.11c0-.04 0-.1.01-.18l.25-1.92c.02-.13.04-.22.06-.25s.03-.04.11-.04c.04 0 .09 0 .15.01l.1.01.05-.32-.1-.01zm.11.65-.26 1.92c-.01.11-.03.17-.05.18-.01.01-.01.02-.06.02-.03 0-.06 0-.11-.01-.29-.04-.47-.12-.57-.23s-.15-.26-.15-.48c0-.16.01-.35.04-.57.05-.39.12-.67.24-.84.11-.17.25-.25.51-.26.07 0 .15 0 .24.01s.14.03.15.04.02.02.02.06c.01.05 0 .1 0 .16m7.98 1.03v.17c0 .12-.02.2-.07.25-.05.06-.16.11-.35.16l-.07.02-.45-2.11c-.02-.09-.03-.15-.03-.2 0-.07.01-.08.03-.1s.09-.05.2-.07l.1-.02-.07-.31-.1.02-1.34.28.06.31.1-.02c.07-.02.12-.02.16-.02.06 0 .07.01.1.04s.05.11.08.23l.45 2.11-.07.01c-.1.02-.17.03-.24.03-.11 0-.17-.03-.22-.07-.05-.05-.09-.13-.13-.24l-.03-.08-.32.07.22.88 2.44-.52-.15-.89zm-2.98 1.21h-.06c-.13 0-.17-.02-.19-.04s-.05-.1-.06-.26l-.09-1.5c-.02-.33-.11-.6-.3-.79-.2-.19-.48-.27-.86-.26h-.09c-.46.03-.75.16-.92.38-.17.21-.21.47-.2.73v.08l.09 1.5v.07c0 .14-.02.19-.04.21s-.09.05-.23.05l-.1.01.02.32 1.3-.08-.02-.32-.1.01h-.06c-.13 0-.17-.02-.19-.04s-.05-.1-.06-.26l-.09-1.5v-.09c-.01-.24.03-.39.11-.48s.21-.15.45-.16h.04c.24 0 .35.06.42.17s.11.29.12.5l.09 1.5V46c0 .14-.02.2-.04.22s-.08.05-.23.05l-.1.01.02.32 1.47-.09-.02-.32zm4.27-40.04c.22.09.44.15.64.16h.02c.38.02.73-.16.89-.58.04-.1.06-.19.06-.28.01-.21-.06-.4-.17-.58s-.29-.37-.44-.56-.26-.38-.25-.52c0-.03.01-.06.02-.09.05-.11.15-.18.32-.17.07 0 .15.02.23.06.15.06.23.14.28.22s.06.17.06.26c0 .05-.01.11-.03.16l-.02.09.3.12.04-.1.26-.74-.07-.04c-.12-.07-.38-.24-.67-.36-.19-.08-.38-.12-.54-.13-.38-.03-.7.16-.83.51-.04.09-.06.19-.06.28-.01.27.1.5.25.7.13.18.28.35.39.5.11.16.18.3.17.43 0 .04-.01.08-.03.13-.06.15-.18.23-.38.22-.07 0-.15-.02-.24-.06-.19-.08-.29-.18-.35-.28-.05-.1-.07-.21-.06-.32 0-.06.01-.12.02-.17l.01-.08-.29-.12-.32.87.06.05c.13.08.38.28.73.42m13.49 9.67c-.03.03-.1.06-.21.1l-1.81.68c-.11.04-.19.06-.23.06s-.04-.01-.07-.03c-.02-.03-.06-.09-.09-.18l-.04-.1-.3.11.04.1.48 1.28.3-.11-.04-.1c-.04-.09-.05-.16-.05-.2s.01-.04.04-.07.1-.06.21-.1l1.82-.68c.11-.04.19-.06.23-.06s.05.01.07.03c.02.03.06.09.09.18l.04.1.3-.11-.52-1.38-.3.12.04.09c.04.1.05.16.05.2-.01.03-.01.04-.05.07m.83 2.24c0 .06-.01.06-.04.09s-.11.06-.23.08l-1.89.46c-.09.02-.16.03-.21.03-.06 0-.07-.01-.09-.03-.02-.03-.05-.09-.07-.2l-.03-.1-.31.08.02.1.54 2.23.84-.17-.08-.33-.1.02c-.05.01-.09.01-.12.01-.08 0-.13-.02-.18-.07s-.1-.13-.13-.28l-.1-.4c-.02-.06-.02-.11-.02-.13.01-.03-.01-.01.01-.02s.08-.04.19-.06l.81-.19.11.47c.02.06.02.11.02.14 0 .06-.01.06-.03.08-.03.02-.09.05-.19.07l-.1.02.07.32 1.11-.27-.08-.32-.1.02c-.08.02-.14.03-.18.03-.05 0-.05-.01-.06-.02-.02-.02-.04-.08-.06-.17l-.11-.47.68-.16c.07-.02.12-.02.15-.02.04 0 .04.01.06.02.01.01.03.05.05.12l.07.28c.03.1.03.18.03.25 0 .11-.03.16-.07.2s-.11.07-.19.1l-.09.03.08.32.83-.24-.55-2.26-.31.08.02.1c.02.06.03.12.03.16m.21 7.24.09.02c.14.03.23.07.28.12s.08.13.08.29c0 .04 0 .08-.01.13v.08l-2.15-.19c-.15-.01-.23-.04-.26-.06-.02-.02-.04-.04-.04-.14 0-.03 0-.06.01-.1l.01-.1-.32-.02-.01.1-.12 1.36.32.03.01-.1c.01-.13.03-.2.05-.22s.05-.04.16-.04c.04 0 .08 0 .13.01l2.15.19-.01.07c-.02.23-.07.34-.13.39-.06.06-.16.08-.32.09h-.09l-.03.32.9.05.22-2.48-.9-.11zm-6.83-14.43c-.11-.01-.17-.04-.28-.18l-.06-.08-.25.2.06.08.74.94.25-.2-.06-.08c-.09-.11-.12-.18-.11-.2 0-.01 0-.01.03-.04.03-.02.07-.04.12-.06l.4-.13.63.8-.23.38c-.03.05-.06.08-.09.11-.01.01-.01.01-.02.01 0 0-.03-.01-.06-.04s-.07-.07-.11-.12l-.06-.08-.25.2.92 1.17.25-.2-.06-.08c-.1-.13-.13-.2-.13-.27s.04-.16.12-.3l1.41-2.32-.32-.4-2.53.8c-.14.08-.24.1-.31.09m2.24-.18-.54.88-.44-.56zm1.94 2.39-1.7.94c-.12.07-.2.09-.24.09-.03 0-.04 0-.07-.03s-.06-.08-.11-.16l-.05-.09-.28.15.05.09.66 1.19.28-.15-.05-.09c-.06-.1-.08-.17-.08-.2s0-.04.04-.07c.03-.03.09-.08.18-.13l.61-.34.03.06c.11.19.23.4.39.57s.37.3.63.3c.15 0 .31-.04.48-.14.33-.18.48-.45.47-.74 0-.23-.09-.47-.21-.7l-.67-1.2-.28.15.05.09c.06.1.08.17.08.2s0 .04-.04.07c-.02.05-.08.09-.17.14m.29.53.05.09c.1-.06.16-.08.18-.08.01 0 .01 0 .03.01s.04.05.07.11c.08.14.12.26.12.35 0 .12-.06.23-.31.37-.14.08-.25.11-.33.11-.1 0-.18-.04-.25-.12-.07-.07-.14-.19-.21-.31l-.03-.05.73-.4zm2.56 14.81c-.02.11-.05.18-.07.2s-.03.03-.1.03c-.05 0-.11-.01-.2-.03l-1.9-.4c-.13-.03-.2-.05-.24-.08-.03-.03-.03-.03-.04-.1 0-.04.01-.09.02-.17l.02-.1-.31-.06-.02.1-.28 1.33.31.07.02-.1c.02-.11.05-.18.07-.2s.03-.03.1-.03c.05 0 .11.01.2.03l1.9.4c.13.03.2.06.23.08.03.03.04.03.04.1 0 .04-.01.09-.02.16l-.02.1.31.06.3-1.43-.31-.07zm.29-7.08v.09c0 .11-.02.14-.04.15-.03.02-.11.05-.26.05l-1.94.11h-.11c-.12 0-.16-.02-.17-.04-.02-.02-.04-.09-.05-.22l-.01-.1-.32.01.01.1.07 1.15.32-.02-.01-.1v-.09c0-.11.02-.13.04-.15.03-.02.11-.04.26-.05l1.65-.09-2.21 1.46.03.59 2.57-.15h.12c.12 0 .15.02.17.04s.04.09.05.23l.01.1.32-.02-.07-1.26-.32.02.01.1v.09c0 .11-.02.13-.04.15-.03.02-.11.05-.26.05l-1.53.1 2.08-1.38-.06-1.04-.32.02zm-3.25 8.65c0-.05.01-.12.05-.2l.04-.1-.3-.12-.04.1-.43 1.12.3.12.04-.1c.03-.09.06-.15.09-.17.03-.03.03-.03.04-.03s.02 0 .03.01c.04.01.07.04.11.08l.32.28-.38.96-.45-.01h-.01c-.04 0-.09-.01-.12-.02-.02-.01-.01 0-.02-.04 0-.04.02-.12.05-.2l.04-.09-.3-.12-.53 1.39.3.11.04-.1c.05-.14.1-.2.16-.24s.15-.06.32-.06h.01l2.71.03.18-.48-1.98-1.76c-.22-.16-.27-.26-.27-.36m.56 1.28.77.69-1.02-.02zm.08 3.58c-.05.07-.08.12-.11.15s-.04.03-.07.03c-.04 0-.12-.03-.24-.11l-1.64-1.03c-.09-.05-.14-.1-.17-.13-.03-.04-.03-.05-.03-.07 0-.03.02-.1.09-.2l.05-.09-.27-.17-.05.09-1.22 1.94.71.49.18-.28-.08-.06c-.13-.09-.18-.17-.18-.26 0-.07.03-.16.11-.28l.22-.35c.03-.05.06-.09.08-.11l.01-.01c.01 0 .08.02.19.09l.7.44-.26.41c-.04.06-.07.1-.1.12s-.04.02-.06.02c-.03 0-.1-.02-.19-.09l-.09-.05-.17.28.96.6.17-.28-.09-.05c-.07-.05-.12-.08-.15-.11-.02-.03-.02-.03-.03-.05 0-.02.02-.08.08-.17l.26-.41.59.37c.06.04.11.07.13.1s.02.03.02.04-.01.06-.05.12l-.15.25c-.16.25-.26.29-.34.29-.06 0-.13-.03-.21-.07l-.08-.04-.18.28.75.43 1.23-1.98-.27-.17zM36.63 5.94c.15-.09.21-.29.12-.44s-.28-.21-.44-.12c-.15.09-.21.28-.12.44.09.15.29.21.44.12m-1.86 2.04c.09.15.28.21.44.12.15-.09.21-.29.12-.44s-.28-.21-.44-.12-.21.29-.12.44m1.89-.08c0-.18-.14-.32-.32-.32-.17 0-.32.14-.32.32s.15.32.32.32.31-.14.32-.32m-1.48-2c.18 0 .32-.14.32-.32s-.14-.32-.32-.32c-.17 0-.32.14-.32.32s.15.32.32.32m-.87 1.04c.15.09.35.04.44-.11s.04-.35-.11-.44-.35-.03-.44.11c-.1.15-.05.35.11.44m2.58.16c.15.09.35.04.44-.11s.04-.35-.11-.44-.35-.03-.44.11c-.09.15-.04.35.11.44m-1.84-.84c-.26.39-.17.91.22 1.18.39.26.91.17 1.18-.22.26-.39.17-.91-.22-1.18-.38-.26-.91-.17-1.18.22m1.08-.06c.3.21.38.61.17.91-.2.3-.61.38-.91.17s-.38-.61-.17-.91c.2-.3.61-.38.91-.17M15.1 4.09c.17.01.33-.13.34-.3.01-.18-.13-.33-.3-.34-.18-.01-.33.13-.34.3-.01.18.12.34.3.34m1.39 2.07c.01-.18-.13-.33-.3-.34-.18-.01-.33.13-.34.3-.01.18.13.33.3.34s.33-.13.34-.3m.17-1.24c-.09.14-.05.35.09.44.15.1.35.05.44-.1.1-.15.05-.35-.09-.44s-.34-.05-.44.1m-2.48.17c.15.1.35.05.44-.1.1-.15.05-.35-.09-.44-.15-.09-.35-.05-.44.09-.1.15-.06.35.09.45m.42 1.06c.08.16.27.22.43.14s.22-.27.14-.43c-.08-.15-.27-.22-.43-.14s-.22.28-.14.43m1.95-1.96c.16-.08.22-.27.14-.43-.08-.15-.27-.22-.43-.14s-.22.28-.14.43c.08.16.27.22.43.14m-.58 1.55c.43-.18.63-.68.45-1.11s-.68-.63-1.11-.45-.63.68-.45 1.11.68.63 1.11.45m-.59-1.39c.33-.14.72.01.86.35.14.33-.01.72-.35.86-.33.14-.72-.01-.86-.35-.14-.33.02-.71.35-.86m17.91.45c.03.17.2.29.37.27.17-.03.29-.19.27-.37-.03-.17-.19-.29-.37-.27-.17.03-.3.2-.27.37m.09 1.25c.06-.16-.02-.35-.18-.41s-.35.02-.41.18.02.35.18.41.34-.02.41-.18"/><path d="M24.14 3.48c.17-.03.29-.19.27-.37-.03-.17-.19-.29-.37-.27-.17.03-.29.19-.27.37.03.17.2.29.37.27m-7.23 9.85c-.2.35-.25.75-.15 1.13.1.39.35.71.7.91.37.22 1.99.66 3.35 1.01.04-.04.13-.13.28-.23-1.5-.39-3.14-.84-3.48-1.04-.28-.16-.48-.42-.56-.73s-.04-.63.12-.91c.21-.37.61-.6 1.04-.6.21 0 .42.06.6.16.38.22 1.82 1.65 2.98 2.84.11-.02.23-.03.35-.03h.03c-1.02-1.05-2.74-2.8-3.21-3.06-.23-.13-.48-.2-.75-.2-.54.01-1.03.29-1.3.75m5.68 2.57c.16.03.29.08.42.14v-.15c-1.24-1.2-3-2.94-3.24-3.36-.16-.28-.2-.6-.12-.91s.28-.57.56-.73c.18-.11.39-.16.6-.16.43 0 .83.23 1.04.6.23.4.81 2.56 1.22 4.21 0-.01.01-.03.01-.04.05-.14.11-.27.18-.39-.36-1.43-.91-3.49-1.16-3.92-.27-.46-.76-.75-1.29-.75-.26 0-.52.07-.75.2-.35.2-.59.52-.7.91-.1.39-.05.79.15 1.13.27.46 2.03 2.21 3.08 3.22m1.1-1.39c-.4-1.44-.79-2.97-.79-3.36 0-.66.54-1.2 1.2-1.2s1.2.54 1.2 1.2c0 .36-.36 1.77-.74 3.15.07.03.17.07.27.13.36-1.32.76-2.86.76-3.28 0-.82-.67-1.49-1.49-1.49s-1.49.67-1.49 1.49c0 .46.47 2.25.86 3.63.07-.11.15-.2.22-.27m1.63.24c.38-1.48.82-3.08 1.02-3.42.21-.37.61-.6 1.04-.6.21 0 .42.06.6.16.28.16.48.42.56.73s.04.63-.12.91c-.2.35-1.44 1.61-2.57 2.71h.09c.17-.15.36-.26.59-.32.03-.01.06-.01.08-.02.91-.9 1.87-1.89 2.06-2.22.2-.35.25-.75.15-1.13-.1-.39-.35-.71-.7-.91-.23-.13-.48-.2-.75-.2-.53 0-1.03.29-1.29.75-.22.38-.67 2.02-1.02 3.39.09.05.18.11.26.17m1.7.09c.06 0 .12-.01.18-.01.08 0 .16.01.23.01.86-.86 1.68-1.64 1.95-1.8.18-.11.39-.16.6-.16.43 0 .83.23 1.04.6.33.57.13 1.31-.44 1.64-.25.14-1.17.42-2.23.71l-.08.09c-.06.07-.15.18-.25.3 1.18-.32 2.39-.66 2.71-.84.71-.41.96-1.33.55-2.04-.27-.46-.76-.75-1.29-.75-.26 0-.52.07-.75.2-.34.19-1.32 1.14-2.22 2.05m-3.25 8.5c-.09-.15-.28-.21-.44-.12-.15.09-.21.28-.12.44.09.15.28.21.44.12.15-.09.21-.29.12-.44m.91 3.46c.15-.09.21-.29.12-.44s-.28-.21-.44-.12c-.15.09-.21.28-.12.44.09.15.29.21.44.12m-.61.51c.15-.09.21-.29.12-.44s-.28-.21-.44-.12c-.15.09-.21.28-.12.44.09.15.29.21.44.12m1.31-.88c.15-.09.21-.29.12-.44s-.28-.21-.44-.12c-.15.09-.21.28-.12.44.08.15.28.21.44.12m.46-1.38c.09.15.28.21.44.12.15-.09.21-.29.12-.44s-.28-.21-.44-.12c-.15.09-.21.29-.12.44m-1.63-.43c-.15.09-.21.28-.12.44.09.15.28.21.44.12.15-.09.21-.29.12-.44-.09-.16-.28-.21-.44-.12m2.19-.2c.15-.09.21-.29.12-.44s-.28-.21-.44-.12c-.15.09-.21.28-.12.44.09.15.29.21.44.12m-2.05-.43c-.09-.15-.28-.21-.44-.12-.15.09-.21.28-.12.44.09.15.28.21.44.12s.21-.3.12-.44m-1.31-3.52c.04.09.12.37.09.57-.04.24-.15.41-.15.41l.24.16c.01-.01.14-.21.19-.52.06-.32-.1-.71-.11-.73z"/><path d="M27.88 15.39c-.02-.01-.57-.22-1.23-.04-.54.15-.72.65-.78.9l-.41-.04c.01-.21 0-.59-.2-.87-.27-.39-.97-.65-1-.67l-.09-.03-.07.07c-.02.02-.47.47-.62.94-.11.34 0 .7.09.9l-.36.17c-.13-.12-.43-.34-.87-.4-.78-.1-1.21.37-1.23.39l-.09.1 1.25 1.25.41.74c.01.08.01.19 0 .32-.01.28-.36 1.23-.59 1.8-.13.32-.11.65.04.9.11.17.34.39.8.42.17.01.32-.03.44-.09l-.1.31.2.35.42-1.3c.02-.04.03-.07.04-.11.01.02.02.03.04.05.55.66 1 .89 1.26.89h.05c.08-.01.19-.04.32-.1l-.41 1.16.5.03.07-.29-.16-.01.29-.84c.14.06.35.12.6.08.51-.1.79-.75.77-1.33-.02-.54-.4-1.24-.44-1.32l-.03-.15c-.07-.33-.05-.53-.03-.73.01-.14.02-.28.01-.45l.18-.92c.07-.34.22-.65.29-.82.16-.38.69-.99.69-.99l.14-.16zm-5.26 2.67c.27-.18 1.07-.66 2.15-.72.15-.01.29-.01.43-.01.77 0 1.24.12 1.44.18l-.1.54c-.21-.06-.59-.14-1.08-.14-.18 0-.36.01-.53.03-.8.1-1.71.47-2.04.61zm1.01 3.33c-.11.26-.32.57-.66.55-.27-.02-.46-.12-.57-.28-.1-.17-.11-.4-.02-.63.02-.06.59-1.47.61-1.9v-.29c.15-.06.46-.19.84-.32.02.12.02.27-.03.41-.12.32-.42.88-.42.89l-.02.03v.04c0 .03.02.59.37 1.19zm1.62.63c-.08.01-.47-.1-1.04-.78-.47-.55-.54-1.18-.55-1.33.07-.13.31-.6.42-.89.08-.21.07-.44.04-.6.28-.08.58-.15.86-.19.16-.02.33-.03.49-.03.47 0 .84.08 1.02.13.02.17 0 .31-.01.44-.01.09-.02.19-.02.3l-.73-.01.11 1.13-.39.09.31.12.28-.11-.18-.97.63.16c.01.04.01.07.02.11.1.48.03.63-.22 1.18-.04.1-.09.21-.15.33-.31.74-.69.89-.89.92m1.54-1.7c.09.22.17.48.18.71.02.49-.22.96-.53 1.02-.23.05-.42-.05-.49-.09.16-.16.32-.39.46-.72.05-.12.1-.23.15-.33.1-.25.18-.42.23-.59m.18-3.81c-.1.24-.16.39-.26.72-.24-.07-.72-.19-1.5-.19-.15 0-.3 0-.45.01-1.16.06-2 .56-2.3.76l-1.01-1.01c.15-.11.44-.26.87-.2.49.06.76.37.76.38l.07.09.84-.4-.08-.14s-.25-.43-.13-.8c.1-.3.36-.62.49-.75.22.09.62.3.77.52.21.3.14.81.13.81l-.02.15.98.11.01-.15c0-.01.07-.65.59-.79.34-.09.65-.06.84-.03-.19.22-.48.61-.6.91"/><path d="m25.06 20.98.14.04.08.15h.64l.07-.11.09-.07.04-.12-1.03-.01zm.27-1.89-.97.02.15.41.76-.21zm-.74 4.97h.96l.07-.29h-1.13zm.23.67.58-.01.06-.3-.74.02z"/><path d="M24.39 5.81c.08.08.17.19.25.32.01.02.02.03.03.05s.02.03.03.05.02.04.04.07c.01.01.01.03.02.04.01.03.03.06.04.09 0 .01.01.02.01.03.02.03.03.07.05.1.15.37.26.81.26 1.23 0 .6-.23.94-.52 1.11-.08.04-.16.07-.24.09h-.01c-.04.01-.07.01-.11.02h-.03c-.04 0-.08.01-.12.01s-.08 0-.12-.01h-.03c-.04 0-.07-.01-.11-.02h-.01c-.08-.02-.16-.05-.24-.09-.3-.17-.52-.51-.52-1.11 0-.42.11-.86.26-1.23.01-.04.03-.07.05-.11 0-.01.01-.02.01-.03.01-.03.03-.06.04-.09.01-.01.01-.03.02-.04.01-.02.02-.04.04-.07.01-.02.02-.03.03-.05s.02-.03.03-.05c.08-.13.16-.24.25-.32-9.95.16-18 8.3-18 18.29 0 4.77 1.84 9.13 4.85 12.39v.93h1.88c-.13.16-.21.36-.21.58 0 .51.41.92.92.92.05 0 .09 0 .14-.01 2.98 2.16 6.62 3.45 10.57 3.48v-.73c-.1-.11-.68-.78-.82-1.35-.13-.5.03-.98.47-1.41h1.02c.43.43.59.91.47 1.41-.14.57-.72 1.24-.82 1.35v.73c3.95-.03 7.6-1.32 10.58-3.48.04.01.08.01.12.01.51 0 .92-.41.92-.92 0-.22-.08-.42-.21-.58h1.88v-.93c3.01-3.26 4.85-7.61 4.85-12.39-.02-9.98-8.06-18.13-18.01-18.28m1.02 1.97c0-.39-.09-.81-.23-1.2 5.43.49 9.92 4.65 10.76 10.09h-2.38c-.82-4.22-4.3-7.35-8.53-7.75.22-.24.38-.61.38-1.14m8.12 14.52h2.84v12.14h-2.84zm2.84 13.17h-2.84v-.59h2.84zm-2.84-14.2h2.84v.59h-2.84zm-.44-.44H33v-1.06h3.9v1.06zm3.6-1.5h-.75c.12-.14.27-.35.38-.59.1.25.25.45.37.59m-.23-1.16h.38v.89c-.16-.21-.35-.53-.38-.89m-.83 1.06c-.17-.18-.5-.59-.53-1.06h1.06c-.04.47-.36.88-.53 1.06m-.31.1h-.75c.12-.14.27-.35.38-.59.11.25.25.45.37.59m-1.05-.1c-.17-.18-.5-.59-.53-1.06h1.06c-.04.47-.36.88-.53 1.06m-.31.1h-.75c.12-.14.27-.35.38-.59.11.25.25.45.37.59m-.91-.27v-.89h.38c-.02.36-.21.68-.38.89M33 17.11h3.9v.62H33zm-8.91-7.79c4.4 0 8.14 3.08 9.01 7.35h-.29c-.19-.6-.75-1.04-1.42-1.04-.45 0-2.18.46-3.56.84-.08.12-.15.23-.18.31l-.02.05c1.55-.43 3.34-.91 3.76-.91.57 0 1.04.39 1.16.92v1.33h.2v1.16h-.2v1.94h.53v14.2h-.42c-.34-.22-.78-.42-1.29-.6.06-.45.68-5.57.71-7.99 0-.25 0-.55.01-.88h-.29c0 .32 0 .62-.01.87-.02 2.33-.61 7.2-.7 7.9-.26-.08-.54-.16-.83-.23.19-1.24.83-5.5.92-7.65.01-.26.02-.56.04-.89h-.29c-.01.33-.03.63-.04.88-.09 2.12-.72 6.33-.92 7.59-.63-.14-1.33-.26-2.07-.36-.11-.37-.23-.68-.3-.86.11-.03.16-.06.18-.06l.08-.04.01-.08c0-.06.09-1.44-.36-2.47-.03-.07-.06-.14-.1-.21.1.03.21.05.32.05.07 0 .14-.01.21-.03.58-.16 1-1.15 1.37-2.2.26-.75.42-1.28.47-1.43.04.01.07.02.1.03.23.08.45-.03.53-.25.08-.21.01-.48-.23-.57-.03-.01-.07-.03-.12-.04.02-.07.09-.24.39-.41.39-.21.61-.2.89-.18.09.01.17.01.27.01.37 0 .55-.22.61-.41h.14v-5.18l-.8-.71h-3.77v5.02l.6.87h.28c-.04.05-.08.09-.12.15-.24.28-.14.54-.06.65l.03.04.04.01c.01 0 1.23.35 1.51.46.08.03.08.13.06.2-.04.11-.13.08-.16.07-.38-.13-1.52-.47-1.53-.48l-.05-.02-.05.02s-.04.02-.1.06c-.05-.36-.2-1.22-.42-1.46-.16-.17-.34-.28-.46-.35.09-.28.13-.55-.14-.73-.24-.15-.61-.31-.75-.36-.01-.02-.01-.04-.03-.06-.09-.15-.28-.21-.44-.12-.15.09-.21.28-.12.44.09.15.28.21.44.12.04-.02.07-.05.09-.08.15.06.45.19.64.31.13.08.1.22-.06.61l-.03.07c-.12.31-.26.6-.32.74l-4.18.1-.75-1.92c.12-.07.24-.13.5-.22.02-.01.05-.02.07-.02l.56 1.59.96-.02-.1-.29-.66.02-.48-1.37c.07-.02.14-.03.2-.05.1.1.26.14.39.06.15-.09.21-.29.12-.44s-.28-.21-.44-.12c-.08.05-.13.12-.15.21-.16.04-.37.09-.57.16-.43.14-.66.31-.67.32l-.09.06.9 2.33 2.07-.05c-.03.09-.03.19.02.28.09.15.28.21.44.12.14-.08.2-.27.13-.41l.6-.01c-.02.08-.02.17.03.25.09.15.28.21.44.12.14-.08.19-.24.14-.39l.34-.01c.12.15.31.44.32.68.02.37-.13.9-.28 1.22-.05.1-.08.17-.11.23-.35-.06-1.28-.2-2.16-.2-.39 0-.88.04-1.45.13l-2.79-7.34c.01-.27.08-.59.25-.7.3-.18.63-.22.64-.22l.26-.02-.16-.21c-.02-.02-.38-.5-.89-.37-.17.04-.29.12-.39.2-.03-.13-.1-.26-.22-.36-.29-.25-.62-.31-.64-.31l-.04-.01-.02.03c-.01.01-.22.27-.29.64-.03.16.01.3.06.42-.13 0-.28.02-.43.09-.47.22-.45.83-.44.86l.01.26.22-.15s.28-.19.63-.24c.19-.03.45.18.64.38l1.28 3.37c-.17.08-.44.24-.72.56-.45.51-.65 1.04-.65 1.06l-.05.15.16.04.06.02c-.03.11-.09.28-.21.55-.11.25-.25.4-.42.58-.24.25-.5.52-.71 1.14-.28.83.05 1.52.07 1.54l.06.11.12-.04s.1-.03.25-.07c.18.24.68.84 1.44 1.06.11.03.2.06.29.08-.08.22-.28.8-.34 1.09-.07.35-.13 1.07-.13 1.1l-.01.07.05.05s.04.03.09.07c-.11.26-.3.74-.41 1.17-.41.07-.8.14-1.17.23-.19-1.26-.83-5.47-.92-7.59-.07-1.73-.21-5.4-.29-7.55h-.29c.08 2.15.22 5.83.3 7.56.09 2.15.73 6.41.92 7.65-.29.07-.57.15-.83.23-.09-.7-.68-5.57-.7-7.9-.02-1.72-.03-5.39-.04-7.54h-.29c.01 2.15.03 5.82.04 7.55.02 2.42.65 7.55.71 7.99-.51.18-.95.38-1.29.6h-.42v-14.2h.53v-1.94h-.2v-1.16h.2v-1.33c.13-.53.6-.92 1.16-.92.41 0 2.13.45 3.65.88l.22-.24c-1.41-.4-3.38-.92-3.87-.92-.67 0-1.23.44-1.42 1.04h-.29c.84-4.31 4.58-7.38 8.98-7.38m-4.95 26.61c.01.01.19.29.67.39.36.08.72.02.87-.01.14.08.5.29.93.34s.84-.08 1-.13c.13.06.46.19.93.19.46 0 .77-.14.9-.21.19.06.73.21 1.25.15.5-.06.86-.26 1.01-.35.13.05.39.12.7.07.42-.06.74-.31.75-.33l.06-.05v-.07c0-.03-.04-.74-.17-1.35 1.71.23 3.15.6 4.07 1.07-1.56.8-4.66 1.32-8 1.32-3.35 0-6.45-.52-8-1.32.75-.38 1.86-.7 3.19-.93-.09.53-.16 1.08-.16 1.11l-.01.05zM18.76 19c.03-.16.1-.3.15-.39.1.04.24.1.37.21.2.17.15.52.15.52l.28.07s.11-.29.44-.38c.15-.04.29.02.39.09-.14.04-.31.1-.47.2-.29.18-.37.62-.38.86-.04.02-.11.04-.18.07-.08.03-.14.05-.19.06-.17-.18-.51-.47-.85-.42-.19.03-.36.09-.49.15.03-.12.1-.25.24-.32.31-.15.58.01.58.01l.17-.24c.01 0-.25-.24-.21-.49m.85 1.53c.06-.02.1-.04.14-.05l.11.29c-.06.01-.12.02-.17.05-.03.02-.07.05-.1.07l-.12-.31c.04-.01.09-.03.14-.05m.22.54c.02-.01.08-.01.14-.01l.1.26c-.05.01-.1.02-.15.04-.04.02-.08.06-.12.09l-.1-.26c.04-.04.09-.1.13-.12m.24.55c.02-.01.07-.01.11-.01l3.37 8.84-.39-.21-3.23-8.49c.03-.04.09-.1.14-.13m2.81 6.26c.53-.08.99-.12 1.35-.12.84 0 1.76.14 2.1.19l-.09.47c-.34-.07-1.18-.23-2.02-.19-.7.04-1.02.07-1.16.1zm1.2 4.46c.07.13.12.34.14.5-.04 0-.09-.01-.15-.03-.09-.03-.17-.22-.23-.35-.03-.06-.05-.12-.08-.17-.11-.2-.38-.34-.41-.35l-.13.26c.08.04.24.14.29.23.02.04.04.09.07.14.01.02.02.05.03.08l-.02.01c-.06-.05-.15-.14-.23-.22-.09-.09-.26-.19-.49-.32-.16-.09-.32-.18-.45-.27-.25-.17-.44-.57-.49-.66.2-.16.81-.66.92-.75l.01-.01.96.5c.01.07.04.19.11.33.05.11.13.2.2.3.11.13.22.27.3.5.09.25.1.5.09.65h-.03c-.03-.16-.08-.37-.16-.51-.14-.26-.39-.47-.4-.48l-.18.22s.22.18.33.4m-2.39-4.05c.02-.07.04-.13.05-.2.06-.01.15-.03.26-.05l.18.47-.54.11c-.04-.03-.07-.05-.11-.07.07-.07.12-.16.16-.26m-.23-1.09c-.08-.06-.11-.09-.1-.23 0-.03.03-.1.09-.18l.14.14.31.82c-.06.01-.11.02-.15.03-.02-.18-.07-.34-.12-.42-.06-.07-.12-.12-.17-.16m.82 1.58.3.8c-.06-.01-.13 0-.19.02-.08-.2-.23-.52-.4-.69l-.06-.06zm.29 1.09c.06.01.11.06.13.1.08.13-.01.22-.03.24-.11.09-.75.62-.93.76-.13.1-.32.09-.38.01-.08-.09-.02-.22 0-.26.25-.14.88-.65 1.05-.79.05-.04.11-.06.16-.06m-1.9-5.33c-.02-.01-.03-.02-.04-.03-.13-.07-.23-.12-.32-.16.09-.07.17-.11.24-.14zm-.19.22c.22.12.34.23.39.29l.48 1.27c-.22-.18-.51-.37-.85-.49-.32-.12-.83-.26-1.1-.33.08-.18.26-.5.53-.81.04-.04.08-.08.11-.12.06.02.21.07.44.19m-.97 1.07c.07.02.15.04.23.06.02.16.03.49-.19.91-.33.63-.89 1.17-.89 1.18l.21.21c.02-.02.59-.58.95-1.25.21-.4.25-.74.24-.96.13.04.25.08.35.12.33.12.61.32.83.49-.08.12-.15.25-.16.37-.01.29.12.39.21.46.04.03.07.06.09.1.06.09.13.43.04.67-.04.11-.11.18-.2.21-.42.13-2.5.76-3.04.92-.07-.21-.19-.68-.01-1.21.19-.55.42-.79.65-1.03.17-.18.35-.36.48-.67.11-.27.17-.45.21-.58m-.19 3.45c.08.14.23.37.44.55.31.25.77.44.79.44l.11-.27s-.44-.18-.71-.4c-.15-.12-.27-.29-.34-.41.65-.2 1.33-.4 1.62-.49.12.08.4.26.56.42.13.13.28.45.35.64-.41.33-.87.68-.96.72-.17.07-.45.1-1.28-.13-.59-.17-1.02-.62-1.22-.87.19-.06.41-.13.64-.2m1.57 1.54c.05 0 .09 0 .13-.01-.01.11.01.24.11.35.06.07.14.11.22.14-.02.11-.05.27-.07.48-.04.4-.04.77-.04.79h.29s0-.38.04-.76c.02-.23.05-.4.08-.49.01 0 .02 0 .03-.01.06.14.28.57.59.78.15.1.32.2.47.28.18.1.37.21.42.27.13.13.29.28.3.28l.06.05.25-.07c.06.08.13.14.22.17.1.04.19.05.27.05.11 0 .18-.02.2-.03l.11-.04-.01-.06h.25l.02-.13c0-.02.06-.46-.1-.91-.1-.28-.24-.45-.36-.59-.07-.08-.13-.15-.16-.23-.09-.2-.1-.31-.1-.31v-.08l-.16-.08-.78-2.04c.13-.02.38-.04.85-.07.07.14.23.54.29.94.07.51.05 1.29.05 1.3l.29.01c0-.03.02-.81-.06-1.35-.05-.37-.18-.72-.27-.92.24-.01.48 0 .71.02.1.19.49.94.68 1.76.23.97.29 2.31.29 2.32l.29-.01c0-.06-.06-1.38-.3-2.38-.17-.7-.46-1.33-.62-1.66.54.07.93.16.94.17l.15.04.19-1.01c.03-.05.06-.12.1-.21.17-.36.33-.93.31-1.36-.01-.24-.14-.5-.26-.67l.04-.08c.01-.02.2-.4.37-.84l.01-.03c.1.06.24.15.35.27.14.15.3.93.37 1.42h.01c-.15.1-.32.24-.52.43-.42.4-.5.5-.51.51l.23.18s.08-.09.48-.48c.34-.33.64-.51.76-.57.1.03.34.1.59.18-.06.22-.54 1.17-.81 1.5-.35.42-.62.62-.62.63l.19.22c.02-.02.29-.22.65-.66.31-.38.79-1.35.86-1.6.07.02.14.05.21.07-.04.14-.2.67-.46 1.42-.18.51-.65 1.88-1.17 2.02-.25.07-.54-.08-.66-.15-.33-.63-.61-.99-.62-1.01l-.23.18c0 .01.45.59.88 1.57.36.82.35 1.92.34 2.24-.1.03-.29.07-.58.09-.42.02-.56-.05-.56-.05l-.08-.05-.08.06s-.47.33-2.09.41c-1.64.09-2.58-.4-2.58-.41l-.05-.03-.05.01c-.01 0-.53.12-.97.05-.3-.05-.5-.16-.59-.22.02-.2.06-.72.12-.98.06-.29.28-.91.34-1.09.23.05.39.07.52.07m-.85 2.4c.12.05.27.1.44.12.42.06.88-.01 1.03-.05.2.1.99.43 2.27.43.13 0 .27 0 .42-.01 1.38-.07 1.98-.32 2.17-.42.1.03.3.07.64.06.12 0 .22-.01.31-.03.07.17.22.56.36 1.02.15.52.21 1.28.23 1.52-.1.06-.3.18-.55.22-.24.03-.45-.02-.55-.06l-.3-2.16-.29.04.3 2.16c-.14.08-.45.24-.86.29-.42.05-.87-.06-1.07-.12l-.13-2.14-.29.02.13 2.13c-.1.05-.36.17-.75.17-.35 0-.61-.08-.74-.14l.14-2.18-.29-.02-.14 2.16c-.14.05-.5.15-.86.11-.35-.04-.67-.21-.79-.29l.42-2.1-.29-.06-.42 2.12c-.15.02-.42.05-.68 0-.26-.06-.4-.17-.46-.23.03-.21.11-.9.22-1.4.06-.39.26-.89.38-1.16m8.02-10.13v-2.45l.32.48v2.44zm.32.89v.55l-.32-.45v-.57zm-.32-3.75v-.68l.32.45v.7zm.16-.93h.71l.37.49h-.72zm3.17 1.8h.68v2.59h-.68zm.68 3.58h-.68v-.69h.68zm-.68-4.59h.68v.72h-.68zm-.02-.3-.5-.49h.6l.56.49zm-1.65 1.31h1.38v2.59h-1.38zm1.38 3.58h-1.38v-.69h1.38zm-1.38-4.59h1.38v.72h-1.38zm1.35-.3h-1.39l-.37-.49h1.27zm-1.64 1.02h-.75v-.72h.75zm0 2.89h-.75v-2.59h.75zm-.76.29h.75v.69h-.75zm.1 1.32c.13-.15.22-.26.27-.34h2.85c-.05.06-.13.12-.28.12-.09 0-.17-.01-.25-.01-.3-.02-.58-.04-1.05.21-.38.2-.5.44-.54.58-.39-.12-.91-.27-1.08-.32-.01-.04-.02-.13.08-.24M11.82 22.3h2.84v12.14h-2.84zm2.84 13.17h-2.84v-.59h2.84zm-2.84-14.2h2.84v.59h-2.84zm-.45-.44h-.09v-1.06h3.9v1.06zm.5-2.09c.11.25.26.45.38.59h-.75c.12-.14.27-.34.37-.59m-.53.32v-.89h.38c-.02.36-.21.68-.38.89m.69-.89h1.06c-.03.47-.36.88-.53 1.06-.17-.18-.5-.59-.53-1.06m1.21.57c.11.25.26.45.38.59h-.75c.11-.14.26-.34.37-.59m.15-.57h1.06c-.03.47-.36.88-.53 1.06-.17-.18-.5-.59-.53-1.06m1.21.57c.11.25.26.45.38.59h-.75c.11-.14.26-.34.37-.59m.15-.57h.38v.89c-.17-.21-.36-.53-.38-.89m-3.47-1.06h3.9v.62h-3.9zm11.88-8.19c-4.23.4-7.71 3.53-8.53 7.75h-2.38c.84-5.44 5.33-9.6 10.76-10.09-.14.39-.23.81-.23 1.2 0 .53.16.9.38 1.14M6.53 24.1c0-7.66 4.93-14.19 11.79-16.58-3.41 1.8-5.92 5.14-6.52 9.16h-.96v1.5h.2v1.16h-.2v1.94h.53v14.2h-.64c-2.61-3.07-4.2-7.05-4.2-11.38m4.56 12.87v-1.06h4.3v1.06zm2.15 1.5c-.26 0-.48-.21-.48-.48 0-.26.21-.48.48-.48.26 0 .48.21.48.48-.01.27-.22.48-.48.48m.79-.01c.08-.14.13-.3.13-.47 0-.22-.08-.42-.21-.58h1.73c.26.15.56.29.91.42-.04.16-.08.36-.06.58.09.94.62 1.49 2.38 2.45-1.77-.54-3.41-1.36-4.88-2.4m5.02 2.15c-1.68-.91-2.16-1.39-2.24-2.23-.01-.16.01-.32.05-.45.6.21 1.3.38 2.08.53-.04.17-.07.43-.01.71.14.67.8 1.51 1.97 2.1-.63-.16-1.34-.38-1.85-.66m2.91.78c-1.67-.52-2.59-1.55-2.74-2.28-.05-.24-.02-.46.01-.6.6.1 1.24.19 1.91.25-.09.23-.19.62-.14 1.03.08.58.52 1.26 1.33 1.71-.11-.03-.23-.07-.37-.11m.87-1.02c.12.46.47.97.7 1.25-.05-.01-.11-.02-.18-.04-1.29-.33-1.97-1.16-2.06-1.84-.05-.39.07-.77.15-.96.57.05 1.15.08 1.75.09-.36.47-.49.98-.36 1.5m1.26-1.92c-3.55 0-6.82-.58-8.27-1.46v-.98c1.62.86 4.76 1.4 8.27 1.4 3.5 0 6.65-.54 8.27-1.4v.98c-1.45.88-4.72 1.46-8.27 1.46m.56 3.17c.23-.29.59-.79.7-1.25.13-.52.01-1.03-.36-1.49.6-.02 1.19-.05 1.75-.09.08.19.2.57.15.96-.09.68-.77 1.51-2.06 1.84-.07.02-.13.03-.18.03m1.2-.12c.81-.45 1.25-1.13 1.33-1.71.06-.4-.05-.79-.14-1.03.67-.06 1.31-.15 1.91-.25.03.14.06.36.01.6-.15.73-1.08 1.75-2.74 2.28-.13.04-.26.08-.37.11m1.43-.22c1.17-.6 1.83-1.43 1.97-2.1.06-.28.03-.54-.01-.71.78-.14 1.48-.32 2.08-.53.03.13.06.29.05.45-.08.83-.56 1.31-2.24 2.23-.51.27-1.21.49-1.85.66m6.88-2.81c-1.49 1.04-3.14 1.86-4.91 2.41.01 0 .01-.01.02-.01 1.77-.96 2.3-1.51 2.39-2.46.02-.21-.02-.42-.06-.58.34-.13.65-.27.91-.42h1.73c-.13.16-.21.36-.21.58 0 .18.05.34.13.48m.79 0c-.26 0-.48-.21-.48-.48 0-.26.21-.48.48-.48.26 0 .48.21.48.48-.01.27-.22.48-.48.48m2.15-1.5h-4.3v-1.06h4.3zm.35-1.5h-.64v-14.2h.53v-1.94h-.2v-1.16h.2v-1.5h-.96c-.6-4.01-3.1-7.36-6.52-9.16 6.85 2.39 11.79 8.92 11.79 16.58 0 4.34-1.58 8.32-4.2 11.38m45.3-33.66c-.91 0-1.66.75-1.66 1.66s.75 1.66 1.66 1.66c.88 0 1.66-.75 1.66-1.66s-.78-1.66-1.66-1.66m-1.3 6.39v15.54c.42-.03.85-.1 1.3-.1.42 0 .81.07 1.3.1V8.2c-.49.03-.88.1-1.3.1-.45-.01-.88-.07-1.3-.1m17.89 0-2.6 7.02-1.95 4.59c-.13.29-.39.59-.62.91-2.02-4.55-3.94-9.5-4.85-12.52-.55.03-.98.1-1.43.1-.52 0-1.01-.06-1.46-.1 2.05 4.52 5.24 12.45 6.37 15.55.32-.03.65-.1 1.01-.1.29 0 .62.07.97.1 1.63-4.72 4.88-11.87 6.64-15.55-.39.03-.72.1-1.04.1-.35-.01-.71-.07-1.04-.1m10 15.8c1.98 0 4-.78 5.59-1.92l.03-1.69c-.88.85-2.6 2.24-4.81 2.24-3.94 0-5.92-3.12-5.63-6.76h4.59c2.18 0 4.39.03 6.6.1.32-5.43-2.99-7.97-6.6-7.97-4.84 0-7.45 3.48-7.45 8 0 5.04 3.19 8 7.68 8m-.23-14.99c3.22 0 4 2.83 4.07 5.66h-8.65c.19-2.73 1.52-5.66 4.58-5.66m11.56 2.05-.16.39V8.2c-.49.03-.88.1-1.3.1-.45 0-.88-.06-1.3-.1v15.54c.42-.03.85-.1 1.3-.1.42 0 .81.07 1.3.1v-8.42c0-1.76.06-2.83 1.2-4.13.49-.55 1.37-.81 2.08-.81.55 0 1.04.39 1.53.52l.45-2.73c-.29-.13-.55-.16-1.01-.16-1.62-.01-3.02 1.36-4.09 3.05m7.49.65c0-1.76 1.33-2.7 2.96-2.7 1.2 0 2.34 1.07 2.76 2.15h.29c.2-.78.46-1.56.78-2.31-.58-.36-1.98-.85-3.67-.85-2.93 0-5.3 1.69-5.3 4.81 0 5.69 7.67 2.83 7.67 7.22 0 1.72-1.59 2.96-3.19 2.96-1.53 0-2.96-1.14-3.74-2.41h-.26c-.13.81-.42 1.59-.68 2.37 1.14.68 2.73 1.04 4.07 1.04 2.86 0 5.98-1.66 5.98-5.14.01-5.19-7.67-2.98-7.67-7.14m11.94-9.9c-.91 0-1.66.75-1.66 1.66s.75 1.66 1.66 1.66c.88 0 1.66-.75 1.66-1.66s-.78-1.66-1.66-1.66m-1.3 6.39v15.54c.43-.03.85-.1 1.3-.1.42 0 .81.07 1.3.1V8.2c-.49.03-.88.1-1.3.1-.45-.01-.87-.07-1.3-.1m10.07 9.39V9.43h3.45c-.1-.32-.1-.78 0-1.24h-3.45V3.96l-2.6 1.01v3.22h-2.02c.1.42.1.81 0 1.24h2.02v9.46c-.16 3.97 1.27 5.11 3.74 5.11.94 0 1.85-.26 2.73-.59v-.77c-.49.1-.98.23-1.46.23-2.7-.01-2.41-3.29-2.41-5.28m26.47 5.27c-2.7 0-2.41-3.28-2.41-5.27V9.43h3.45c-.1-.32-.1-.78 0-1.24h-3.45V3.96l-2.6 1.01v3.22h-2.01c.1.42.1.81 0 1.24h2.01v9.46c-.16 3.97 1.27 5.11 3.74 5.11.95 0 1.85-.26 2.73-.59v-.77c-.49.09-.98.22-1.46.22m-97.88 3.98c-.68 2.21-3.32 8.62-4.78 12.1-1.49-3.41-3.32-8.81-4.16-12.1-.33.03-.59.1-.85.1-.29 0-.58-.07-.85-.1-1.07 3.42-3.22 9.2-4.55 12.07-1.56-3.77-2.99-8.13-4.13-12.07-.55.03-.98.1-1.43.1-.49 0-.98-.07-1.43-.1 1.76 4.06 3.84 9.66 5.76 15.55.29-.03.59-.1.88-.1s.55.07.88.1c1.56-4.98 3.35-9.73 4.42-11.81 1.2 2.99 3.15 8.65 4 11.81.29-.03.58-.1.88-.1.26 0 .52.07.88.1 2.02-5.95 5.4-13.3 6.54-15.55-.39.03-.68.1-1.01.1-.4 0-.72-.07-1.05-.1m3.99 0v15.55c.42-.03.85-.1 1.3-.1.42 0 .81.07 1.3.1V26.84c-.49.03-.88.1-1.3.1-.46 0-.88-.07-1.3-.1m12.88-.2c-4.85 0-7.45 3.48-7.45 8 0 5.04 3.19 8 7.67 8 1.99 0 4-.78 5.6-1.92l.03-1.69c-.88.85-2.6 2.24-4.81 2.24-3.93 0-5.92-3.12-5.63-6.76h4.59c2.18 0 4.39.03 6.6.1.33-5.43-2.99-7.97-6.6-7.97m-4.59 6.67c.19-2.73 1.53-5.66 4.59-5.66 3.22 0 4 2.83 4.06 5.66zm21.15-6.67c-2.31 0-4.1 1.17-5.24 3.15v-2.95c-.49.03-.88.1-1.3.1-.46 0-.88-.07-1.3-.1v15.55c.42-.03.85-.1 1.3-.1.42 0 .81.07 1.3.1v-7.55c0-4 .85-6.51 4.26-6.51 3.06 0 3.61 2.37 3.61 5.4v8.65c.42-.03.85-.1 1.3-.1.42 0 .81.07 1.3.1v-9.4c.01-4.29-1.45-6.34-5.23-6.34m54.72-5.56v-7.63c0-3.72-1.87-5.52-5.33-5.52-1.94 0-3.71.72-5.29 1.81v1.84h.36c.23-.72 1.51-2.27 3.91-2.27 2.46 0 3.85 1.41 3.85 3.85 0 1.58-.89 1.78-3.49 2.2-3.09.49-6.09.99-6.09 4.73 0 2.43 2.04 4.01 4.38 4.01 1.97 0 3.48-.69 4.87-2.07l.3-.3c.26 1.94 1.68 2.2 3.39 1.91.36-.07.76-.23.99-.33v-.72c-1.95.43-1.85-.22-1.85-1.51m-2.63-.62c0 .23-.66.79-.89 1.02-.62.62-1.74 1.25-2.63 1.25-2.01 0-3.22-1.02-3.22-3.09 0-2.99 3.35-3.32 5.59-3.75l1.15-.23zm-6.53-15.42c.83 0 1.58-.71 1.58-1.57 0-.87-.74-1.58-1.58-1.58-.87 0-1.58.71-1.58 1.58 0 .86.72 1.57 1.58 1.57m7.35 0c.83 0 1.58-.71 1.58-1.57 0-.87-.74-1.58-1.58-1.58-.86 0-1.57.71-1.57 1.58 0 .86.71 1.57 1.57 1.57M59.78 24c2.25 0 4.08-1.05 5.13-2.98l.04 2.72c.41-.03.82-.09 1.3-.1.41 0 .79.06 1.3.1v-8.95c.2-3.18 1.22-5.1 4.22-5.1 3.06 0 3.61 2.37 3.61 5.4v8.65c.42-.03.84-.1 1.3-.1.42 0 .81.07 1.3.1v-9.4c0-4.29-1.46-6.34-5.24-6.34-2.28 0-4.05 1.14-5.19 3.08V8.19h-.04c-.47.03-.85.1-1.3.1-.44 0-.85-.07-1.3-.1v9.93c-.19 2.09-1.09 4.28-3.96 4.28-2.93 0-3.93-2.02-3.93-5.43V8.19c-.49.03-.88.1-1.3.1-.45 0-.88-.06-1.3-.1v9.56c-.01 4.4 1.78 6.25 5.36 6.25"/></svg>