<?xml version="1.0" encoding="utf-8"?>
<!-- Generator: Adobe Illustrator 16.0.4, SVG Export Plug-In . SVG Version: 6.00 Build 0)  -->
<!DOCTYPE svg PUBLIC "-//W3C//DTD SVG 1.1//EN" "http://www.w3.org/Graphics/SVG/1.1/DTD/svg11.dtd">
<svg version="1.1" id="Layer_1" xmlns="http://www.w3.org/2000/svg" xmlns:xlink="http://www.w3.org/1999/xlink" x="0px" y="0px"
	 width="318.812px" height="90.936px" viewBox="0 0 318.812 90.936" enable-background="new 0 0 318.812 90.936"
	 xml:space="preserve">
<g>
	<g>
		<path fill="#FFFFFF" d="M14.123,21.797l6.766,29.697l9.218-14.258c0.969-1.514,1.71-3.013,2.225-4.496
			c0.515-1.483,0.772-2.709,0.772-3.678c0-0.787-0.129-1.431-0.386-1.931c-0.258-0.499-0.598-0.915-1.022-1.249
			c-0.424-0.332-1.317-0.695-2.679-1.09l0.545-2.951h10.49c0.787,0.696,1.181,1.65,1.181,2.861c0,2.785-1.256,6.115-3.769,9.99
			L17.619,65.436h-5.585L2.77,25.883L0,24.793l0.5-2.996H14.123z"/>
		<path fill="#FFFFFF" d="M55.718,60.44l5.404,1.09l-0.5,2.997H42.776l6.812-38.599l-4.132-1.09l0.5-2.997H62.53L55.718,60.44z"/>
		<path fill="#FFFFFF" d="M84.009,65.436c-5.207,0-9.241-1.408-12.102-4.223c-2.86-2.816-4.291-6.706-4.291-11.671
			c0-5.601,1.112-10.596,3.338-14.985c2.225-4.39,5.29-7.795,9.195-10.217s8.128-3.633,12.669-3.633c2.18,0,4.548,0.204,7.107,0.612
			c2.558,0.409,4.639,0.886,6.244,1.431l-2.225,13.078h-3.27l-0.636-7.766c-1.635-1.816-3.845-2.725-6.63-2.725
			c-2.392,0-4.654,1.067-6.789,3.202c-2.134,2.134-3.807,5.025-5.018,8.673c-1.211,3.648-1.816,7.606-1.816,11.875
			c0,3.391,0.666,6.024,1.998,7.901c1.332,1.877,3.285,2.815,5.858,2.815c2.271,0,4.336-0.408,6.199-1.227
			c1.861-0.816,3.655-1.831,5.381-3.042l1.998,2.86c-2.482,2.211-5.245,3.937-8.287,5.178
			C89.889,64.814,86.915,65.436,84.009,65.436z"/>
		<path fill="#FFFFFF" d="M144.904,60.44l4.949,1.453l-0.363,2.634h-15.757l-0.182-6.267c-1.786,2.24-3.808,4.004-6.062,5.29
			c-2.256,1.287-4.549,1.93-6.88,1.93c-3.785,0-6.729-1.361-8.832-4.086c-2.104-2.725-3.156-6.509-3.156-11.354
			c0-5.297,1.105-10.209,3.315-14.735c2.209-4.525,5.291-8.083,9.241-10.671c3.951-2.589,8.303-3.883,13.055-3.883
			c4.178,0,7.977,0.682,11.398,2.043l3.724-1.68h2.452L144.904,60.44z M120.564,48.588c0,3.119,0.521,5.594,1.566,7.425
			c1.045,1.832,2.354,2.747,3.928,2.747c1.211,0,2.559-0.604,4.042-1.816c1.483-1.21,2.815-2.709,3.996-4.495l4.495-25.565
			c-1.361-1.029-3.239-1.545-5.631-1.545c-2.24,0-4.313,1.067-6.221,3.202c-1.907,2.134-3.414,5.025-4.518,8.673
			C121.117,40.861,120.564,44.653,120.564,48.588z"/>
		<path fill="#FFFFFF" d="M169.017,21.797l6.766,29.697l9.219-14.258c0.969-1.514,1.709-3.013,2.225-4.496
			c0.515-1.483,0.771-2.709,0.771-3.678c0-0.787-0.129-1.431-0.385-1.931c-0.258-0.499-0.599-0.915-1.022-1.249
			c-0.425-0.332-1.317-0.695-2.679-1.09l0.545-2.951h10.489c0.787,0.696,1.181,1.65,1.181,2.861c0,2.785-1.256,6.115-3.77,9.99
			l-19.844,30.742h-5.586l-9.264-39.553l-2.77-1.09l0.5-2.996H169.017z"/>
		<path fill="#A85D8E" d="M51.904,6.947c0-1.968,0.688-3.617,2.066-4.949S56.99,0,58.897,0c1.937,0,3.58,0.674,4.927,2.021
			c1.347,1.347,2.021,2.989,2.021,4.927c0,1.907-0.666,3.55-1.998,4.927c-1.333,1.378-2.982,2.066-4.95,2.066
			c-1.938,0-3.587-0.674-4.95-2.021S51.904,8.915,51.904,6.947z"/>
		<path fill="#A85D8E" d="M25.97,71.847l-0.129,0.784l-1.418,0.29l-7.756,13.664h-1.214L12.22,72.921l-1.128-0.29l0.129-0.784h5.876
			l-0.129,0.784l-1.547,0.29l2.17,9.442l5.231-9.442l-1.396-0.29l0.129-0.784H25.97z"/>
		<path fill="#A85D8E" d="M26.883,85.285l1.278,0.258l-0.118,0.709h-4.222l1.611-9.131l-0.978-0.258l0.118-0.709h3.921
			L26.883,85.285z M25.98,72.631c0-0.466,0.163-0.855,0.489-1.171c0.326-0.315,0.714-0.473,1.166-0.473
			c0.458,0,0.847,0.159,1.166,0.478c0.318,0.319,0.478,0.708,0.478,1.166c0,0.451-0.158,0.84-0.473,1.166
			c-0.315,0.325-0.706,0.488-1.171,0.488c-0.458,0-0.849-0.159-1.171-0.479C26.142,73.488,25.98,73.097,25.98,72.631z"/>
		<path fill="#A85D8E" d="M38.656,78.088c0,0.645-0.236,1.239-0.709,1.783s-1.155,0.992-2.046,1.343s-1.903,0.569-3.035,0.655
			c-0.036,0.144-0.054,0.387-0.054,0.73c0,1.69,0.648,2.535,1.944,2.535c0.53,0,1.021-0.102,1.472-0.307
			c0.451-0.203,0.874-0.438,1.268-0.703l0.473,0.677c-0.63,0.53-1.314,0.94-2.052,1.229c-0.738,0.291-1.447,0.436-2.127,0.436
			c-1.268,0-2.234-0.318-2.9-0.956s-0.999-1.572-0.999-2.804s0.261-2.374,0.784-3.427c0.522-1.053,1.214-1.882,2.073-2.487
			c0.859-0.604,1.751-0.907,2.675-0.907c0.988,0,1.774,0.198,2.358,0.597C38.364,76.879,38.656,77.415,38.656,78.088z
			 M33.038,80.795c0.874-0.093,1.591-0.41,2.154-0.951c0.562-0.54,0.843-1.172,0.843-1.896c0-0.301-0.074-0.526-0.22-0.677
			c-0.147-0.15-0.321-0.226-0.521-0.226c-0.494,0-0.955,0.365-1.38,1.096C33.487,78.872,33.195,79.757,33.038,80.795z"/>
		<path fill="#A85D8E" d="M47.347,78.464c0-0.694-0.326-1.042-0.978-1.042c-0.451,0-0.96,0.251-1.525,0.752
			c-0.566,0.501-0.985,1.067-1.257,1.697l-1.139,6.381h-2.857l1.59-9.12l-0.956-0.269l0.14-0.709h3.588l-0.086,1.88
			c1.11-1.433,2.471-2.148,4.082-2.148c0.709,0,1.271,0.189,1.687,0.569c0.415,0.38,0.623,0.913,0.623,1.601
			c0,0.372-0.09,1.027-0.269,1.966l-0.935,5.264l1.246,0.258l-0.14,0.709h-4.146l1.096-6.112
			C47.268,79.309,47.347,78.75,47.347,78.464z"/>
		<path fill="#A85D8E" d="M59.582,78.464c0-0.694-0.326-1.042-0.978-1.042c-0.451,0-0.96,0.251-1.525,0.752
			c-0.566,0.501-0.985,1.067-1.257,1.697l-1.139,6.381h-2.857l1.59-9.12l-0.956-0.269l0.14-0.709h3.588l-0.086,1.88
			c1.11-1.433,2.471-2.148,4.082-2.148c0.709,0,1.271,0.189,1.687,0.569c0.415,0.38,0.623,0.913,0.623,1.601
			c0,0.372-0.09,1.027-0.269,1.966l-0.935,5.264l1.246,0.258l-0.14,0.709H58.25l1.096-6.112
			C59.503,79.309,59.582,78.75,59.582,78.464z"/>
		<path fill="#A85D8E" d="M72.451,85.285l1.171,0.344l-0.086,0.623h-3.728l-0.043-1.482c-0.423,0.53-0.901,0.947-1.434,1.252
			c-0.534,0.304-1.076,0.456-1.627,0.456c-0.896,0-1.592-0.322-2.089-0.967c-0.498-0.645-0.747-1.54-0.747-2.686
			c0-1.253,0.261-2.415,0.784-3.485c0.522-1.071,1.251-1.912,2.186-2.525c0.935-0.611,1.964-0.918,3.088-0.918
			c0.988,0,1.887,0.161,2.696,0.483l0.881-0.397h0.58L72.451,85.285z M66.693,82.481c0,0.737,0.124,1.323,0.371,1.757
			c0.247,0.433,0.557,0.649,0.929,0.649c0.286,0,0.605-0.144,0.956-0.43c0.351-0.286,0.666-0.641,0.945-1.063l1.063-6.048
			c-0.322-0.243-0.767-0.365-1.332-0.365c-0.53,0-1.021,0.253-1.472,0.757c-0.451,0.506-0.808,1.189-1.069,2.053
			C66.824,80.653,66.693,81.551,66.693,82.481z"/>
		<path fill="#A85D8E" d="M87.308,86.467c-2.041,0-3.625-0.528-4.753-1.584c-1.128-1.057-1.692-2.502-1.692-4.335
			c0-1.762,0.372-3.313,1.117-4.657c0.745-1.342,1.808-2.379,3.19-3.109c1.382-0.73,2.961-1.096,4.737-1.096
			c1.618,0,3.312,0.187,5.081,0.559l-0.569,3.62h-0.902V73.78c-0.387-0.308-0.854-0.546-1.402-0.714
			c-0.548-0.169-1.123-0.253-1.724-0.253c-1.182,0-2.244,0.329-3.185,0.988c-0.942,0.659-1.674,1.588-2.197,2.788
			c-0.523,1.199-0.784,2.551-0.784,4.055c0,1.482,0.329,2.639,0.988,3.47c0.659,0.831,1.586,1.246,2.782,1.246
			c0.702,0,1.407-0.103,2.116-0.306c0.709-0.205,1.282-0.464,1.719-0.779l0.827-2.363h0.913l-0.709,3.652
			c-0.81,0.265-1.705,0.481-2.686,0.65C89.194,86.383,88.238,86.467,87.308,86.467z"/>
		<path fill="#A85D8E" d="M99.146,86.467c-1.218,0-2.191-0.383-2.922-1.149s-1.096-1.794-1.096-3.083c0-1.16,0.25-2.228,0.752-3.201
			c0.501-0.974,1.201-1.742,2.1-2.305c0.898-0.562,1.91-0.843,3.035-0.843c1.217,0,2.191,0.383,2.922,1.149s1.096,1.794,1.096,3.083
			c0,1.16-0.251,2.228-0.752,3.201c-0.501,0.974-1.202,1.742-2.1,2.304C101.281,86.186,100.27,86.467,99.146,86.467z
			 M102.121,79.538c0-1.726-0.448-2.589-1.343-2.589c-0.451,0-0.897,0.272-1.337,0.816s-0.795,1.274-1.063,2.191
			s-0.403,1.873-0.403,2.868c0,0.823,0.132,1.459,0.397,1.907c0.265,0.447,0.605,0.671,1.021,0.671c0.458,0,0.902-0.265,1.332-0.795
			s0.77-1.246,1.021-2.148C101.996,81.558,102.121,80.584,102.121,79.538z"/>
		<path fill="#A85D8E" d="M110.489,78.324c0.394-0.767,0.872-1.364,1.434-1.794c0.562-0.43,1.126-0.645,1.692-0.645
			c0.344,0,0.641,0.036,0.892,0.107l-0.623,3.62h-0.591l-0.473-1.472c-0.537,0-1.006,0.136-1.407,0.408
			c-0.401,0.272-0.788,0.705-1.16,1.3l-1.128,6.402h-2.89l1.611-9.131l-1.257-0.258l0.118-0.709h4.028L110.489,78.324z"/>
		<path fill="#A85D8E" d="M124.679,79.474c0,1.274-0.232,2.447-0.697,3.519c-0.467,1.07-1.121,1.917-1.967,2.54
			c-0.845,0.623-1.793,0.935-2.846,0.935c-0.616,0-1.171-0.118-1.665-0.354l-0.021,0.312l-0.129,1.021l-0.408,2.535l1.719,0.258
			l-0.129,0.698h-5.758l0.129-0.698l1.117-0.258l2.299-12.912l-1.063-0.269l0.129-0.645h3.706l-0.064,1.482
			c0.895-1.167,1.851-1.751,2.869-1.751c0.838,0,1.51,0.322,2.02,0.967C124.425,77.497,124.679,78.371,124.679,79.474z
			 M121.855,79.946c0-0.752-0.109-1.345-0.328-1.778c-0.219-0.433-0.507-0.649-0.865-0.649c-0.487,0-1.088,0.477-1.804,1.429
			l-1.053,5.94c0.172,0.172,0.377,0.301,0.618,0.387c0.24,0.086,0.449,0.129,0.628,0.129c0.516,0,0.99-0.253,1.423-0.757
			c0.434-0.506,0.771-1.186,1.016-2.041C121.732,81.749,121.855,80.863,121.855,79.946z"/>
		<path fill="#A85D8E" d="M129.105,83.932c0,0.694,0.326,1.042,0.979,1.042c0.457,0,0.973-0.256,1.547-0.769
			c0.572-0.512,0.984-1.072,1.234-1.681l1.139-6.37h2.857l-1.59,9.12l1.172,0.269l-0.141,0.709H132.5l0.086-1.891
			c-1.109,1.433-2.471,2.148-4.082,2.148c-0.723,0-1.289-0.195-1.697-0.586c-0.408-0.39-0.611-0.95-0.611-1.681
			c0-0.136,0.022-0.369,0.069-0.698c0.046-0.329,0.425-2.471,1.134-6.424l-1.246-0.258l0.139-0.709h4.146l-1.096,6.102
			C129.184,83.079,129.105,83.638,129.105,83.932z"/>
		<path fill="#A85D8E" d="M145.025,83.062c0,1.089-0.365,1.929-1.096,2.519c-0.73,0.592-1.822,0.887-3.275,0.887
			c-0.553,0-1.145-0.062-1.778-0.188c-0.634-0.126-1.104-0.257-1.413-0.393l0.494-2.804h0.709l0.162,1.418
			c0.457,0.645,1.092,0.967,1.9,0.967c0.588,0,1.057-0.155,1.408-0.468c0.35-0.311,0.525-0.699,0.525-1.165
			c0-0.279-0.095-0.535-0.284-0.769c-0.19-0.232-0.485-0.463-0.886-0.692l-0.709-0.408c-0.795-0.444-1.357-0.907-1.688-1.392
			c-0.329-0.482-0.494-1.025-0.494-1.627c0-2.041,1.35-3.062,4.051-3.062c0.844,0,1.783,0.114,2.814,0.344l-0.463,2.589h-0.709
			l-0.139-1.182c-0.15-0.187-0.373-0.356-0.666-0.51c-0.295-0.154-0.623-0.231-0.988-0.231c-0.545,0-0.944,0.122-1.198,0.365
			c-0.255,0.243-0.382,0.562-0.382,0.956c0,0.279,0.105,0.541,0.317,0.784c0.211,0.243,0.675,0.565,1.392,0.967
			c0.68,0.38,1.168,0.707,1.466,0.983c0.297,0.275,0.526,0.581,0.688,0.918S145.025,82.604,145.025,83.062z"/>
		<path fill="#A85D8E" d="M156.003,86.467c-1.217,0-2.191-0.383-2.922-1.149s-1.096-1.794-1.096-3.083
			c0-1.16,0.251-2.228,0.752-3.201c0.502-0.974,1.201-1.742,2.101-2.305c0.898-0.562,1.91-0.843,3.034-0.843
			c1.218,0,2.191,0.383,2.922,1.149s1.096,1.794,1.096,3.083c0,1.16-0.25,2.228-0.752,3.201c-0.501,0.974-1.201,1.742-2.1,2.304
			C158.14,86.186,157.128,86.467,156.003,86.467z M158.98,79.538c0-1.726-0.448-2.589-1.344-2.589c-0.451,0-0.896,0.272-1.337,0.816
			s-0.795,1.274-1.063,2.191s-0.402,1.873-0.402,2.868c0,0.823,0.132,1.459,0.396,1.907c0.266,0.447,0.605,0.671,1.021,0.671
			c0.457,0,0.902-0.265,1.332-0.795s0.77-1.246,1.02-2.148C158.854,81.558,158.98,80.584,158.98,79.538z"/>
		<path fill="#A85D8E" d="M165.027,77.271h-1.74l0.129-0.741l1.816-0.419l0.246-1.311c0.266-1.418,0.781-2.445,1.547-3.083
			c0.767-0.638,1.787-0.956,3.062-0.956c0.65,0,1.221,0.075,1.707,0.226l-0.418,2.385h-0.688l-0.129-1.203
			c-0.15-0.15-0.352-0.226-0.602-0.226c-0.381,0-0.688,0.191-0.924,0.574c-0.236,0.384-0.441,1.03-0.613,1.939l-0.311,1.697h2.213
			l-0.193,1.117h-2.213l-2.385,13.664h-2.891L165.027,77.271z"/>
		<path fill="#A85D8E" d="M177.896,85.468l-0.15,0.784h-4.232l0.15-0.784l1.107-0.29l7.176-13.449h2.578l2.729,13.449l1.17,0.29
			l-0.15,0.784h-5.896l0.15-0.784l1.482-0.29l-0.656-3.728h-5.07l-1.977,3.728L177.896,85.468z M182.054,74.242l-3.17,6.026h4.254
			L182.054,74.242z"/>
		<path fill="#A85D8E" d="M194.031,78.324c0.395-0.767,0.872-1.364,1.435-1.794c0.562-0.43,1.126-0.645,1.692-0.645
			c0.344,0,0.641,0.036,0.891,0.107l-0.623,3.62h-0.59l-0.473-1.472c-0.537,0-1.007,0.136-1.408,0.408
			c-0.4,0.272-0.787,0.705-1.16,1.3l-1.127,6.402h-2.891l1.611-9.131l-1.256-0.258l0.117-0.709h4.029L194.031,78.324z"/>
		<path fill="#A85D8E" d="M206.728,85.285l1.172,0.344l-0.086,0.623h-3.729l-0.043-1.482c-0.422,0.53-0.9,0.947-1.434,1.252
			c-0.533,0.304-1.076,0.456-1.627,0.456c-0.896,0-1.592-0.322-2.09-0.967s-0.746-1.54-0.746-2.686c0-1.253,0.261-2.415,0.783-3.485
			c0.523-1.071,1.252-1.912,2.187-2.525c0.935-0.611,1.964-0.918,3.089-0.918c0.988,0,1.887,0.161,2.695,0.483l0.881-0.397h0.58
			L206.728,85.285z M200.97,82.481c0,0.737,0.124,1.323,0.371,1.757c0.247,0.433,0.557,0.649,0.93,0.649
			c0.285,0,0.604-0.144,0.955-0.43c0.352-0.286,0.666-0.641,0.945-1.063l1.064-6.048c-0.322-0.243-0.768-0.365-1.332-0.365
			c-0.531,0-1.021,0.253-1.473,0.757c-0.451,0.506-0.807,1.189-1.068,2.053C201.101,80.653,200.97,81.551,200.97,82.481z"/>
		<path fill="#A85D8E" d="M213.71,86.499c-0.78,0-1.577-0.064-2.39-0.193c-0.813-0.129-1.527-0.318-2.144-0.569l2.439-13.804
			l-0.988-0.247l0.117-0.698h3.922l-0.816,4.619c-0.137,0.838-0.287,1.532-0.451,2.084c0.436-0.58,0.914-1.026,1.434-1.337
			c0.52-0.312,1.047-0.468,1.584-0.468c0.859,0,1.543,0.32,2.053,0.962c0.508,0.641,0.762,1.516,0.762,2.626
			c0,1.261-0.244,2.44-0.734,3.54c-0.492,1.099-1.154,1.955-1.988,2.566C215.675,86.193,214.742,86.499,213.71,86.499z
			 M216.408,79.946c0-0.752-0.121-1.345-0.359-1.778c-0.24-0.433-0.555-0.649-0.941-0.649c-0.258,0-0.557,0.138-0.896,0.413
			c-0.34,0.276-0.664,0.636-0.973,1.08l-1.041,5.908c0.143,0.136,0.354,0.256,0.633,0.359c0.279,0.104,0.529,0.156,0.752,0.156
			c0.494,0,0.961-0.258,1.396-0.773c0.438-0.516,0.785-1.205,1.043-2.068C216.279,81.731,216.408,80.849,216.408,79.946z"/>
		<path fill="#A85D8E" d="M223.507,85.285l1.279,0.258l-0.119,0.709h-4.221l1.611-9.131l-0.979-0.258l0.119-0.709h3.92
			L223.507,85.285z M222.605,72.631c0-0.466,0.164-0.855,0.49-1.171c0.324-0.315,0.713-0.473,1.164-0.473
			c0.459,0,0.848,0.159,1.166,0.478c0.318,0.319,0.479,0.708,0.479,1.166c0,0.451-0.158,0.84-0.473,1.166
			c-0.316,0.325-0.705,0.488-1.172,0.488c-0.457,0-0.848-0.159-1.17-0.479C222.767,73.488,222.605,73.097,222.605,72.631z"/>
		<path fill="#A85D8E" d="M230.201,86.467c-1.232,0-2.188-0.333-2.863-0.999c-0.678-0.666-1.016-1.586-1.016-2.761
			c0-1.325,0.264-2.507,0.789-3.545c0.527-1.038,1.252-1.844,2.176-2.417s1.924-0.859,2.998-0.859c0.516,0,1.076,0.048,1.68,0.146
			c0.605,0.096,1.098,0.209,1.479,0.338l-0.527,3.094h-0.773l-0.15-1.837c-0.387-0.43-0.908-0.645-1.568-0.645
			c-0.564,0-1.102,0.253-1.605,0.757c-0.506,0.506-0.9,1.189-1.188,2.053c-0.285,0.862-0.43,1.799-0.43,2.809
			c0,0.802,0.158,1.425,0.473,1.869c0.316,0.444,0.777,0.666,1.387,0.666c0.537,0,1.025-0.097,1.465-0.29
			c0.441-0.193,0.865-0.434,1.273-0.72l0.473,0.677c-0.586,0.522-1.24,0.931-1.961,1.225
			C231.591,86.32,230.888,86.467,230.201,86.467z"/>
		<path fill="#A85D8E" d="M257.431,71.847l-0.129,0.784l-1.418,0.29l-7.756,13.664h-1.213l-3.234-13.664l-1.127-0.29l0.129-0.784
			h5.875l-0.129,0.784l-1.547,0.29l2.17,9.442l5.232-9.442l-1.396-0.29l0.129-0.784H257.431z"/>
		<path fill="#A85D8E" d="M262.341,85.285l1.17,0.344l-0.086,0.623h-3.727l-0.043-1.482c-0.424,0.53-0.9,0.947-1.436,1.252
			c-0.533,0.304-1.074,0.456-1.627,0.456c-0.895,0-1.592-0.322-2.09-0.967c-0.496-0.645-0.746-1.54-0.746-2.686
			c0-1.253,0.262-2.415,0.785-3.485c0.521-1.071,1.25-1.912,2.186-2.525c0.934-0.611,1.965-0.918,3.088-0.918
			c0.988,0,1.887,0.161,2.697,0.483l0.881-0.397h0.58L262.341,85.285z M256.583,82.481c0,0.737,0.123,1.323,0.369,1.757
			c0.248,0.433,0.559,0.649,0.93,0.649c0.287,0,0.605-0.144,0.957-0.43c0.35-0.286,0.666-0.641,0.945-1.063l1.062-6.048
			c-0.322-0.243-0.766-0.365-1.332-0.365c-0.529,0-1.02,0.253-1.471,0.757c-0.451,0.506-0.809,1.189-1.07,2.053
			C256.714,80.653,256.583,81.551,256.583,82.481z"/>
		<path fill="#A85D8E" d="M269.205,78.324c0.395-0.767,0.873-1.364,1.434-1.794c0.562-0.43,1.127-0.645,1.693-0.645
			c0.344,0,0.641,0.036,0.891,0.107l-0.623,3.62h-0.59l-0.473-1.472c-0.537,0-1.006,0.136-1.408,0.408
			c-0.4,0.272-0.787,0.705-1.16,1.3l-1.127,6.402h-2.891l1.611-9.131l-1.256-0.258l0.117-0.709h4.029L269.205,78.324z"/>
		<path fill="#A85D8E" d="M276.681,85.285l1.279,0.258l-0.119,0.709h-4.221l1.611-9.131l-0.979-0.258l0.119-0.709h3.92
			L276.681,85.285z M275.779,72.631c0-0.466,0.164-0.855,0.49-1.171c0.324-0.315,0.713-0.473,1.164-0.473
			c0.459,0,0.848,0.159,1.166,0.478c0.318,0.319,0.479,0.708,0.479,1.166c0,0.451-0.158,0.84-0.473,1.166
			c-0.316,0.325-0.705,0.488-1.172,0.488c-0.457,0-0.848-0.159-1.17-0.479C275.941,73.488,275.779,73.097,275.779,72.631z"/>
		<path fill="#A85D8E" d="M288.455,78.088c0,0.645-0.236,1.239-0.709,1.783s-1.154,0.992-2.047,1.343
			c-0.891,0.351-1.902,0.569-3.033,0.655c-0.037,0.144-0.055,0.387-0.055,0.73c0,1.69,0.648,2.535,1.945,2.535
			c0.529,0,1.02-0.102,1.471-0.307c0.451-0.203,0.875-0.438,1.268-0.703l0.473,0.677c-0.629,0.53-1.314,0.94-2.051,1.229
			c-0.738,0.291-1.447,0.436-2.127,0.436c-1.268,0-2.234-0.318-2.9-0.956s-1-1.572-1-2.804s0.262-2.374,0.785-3.427
			c0.521-1.053,1.213-1.882,2.072-2.487c0.859-0.604,1.752-0.907,2.676-0.907c0.988,0,1.773,0.198,2.357,0.597
			C288.164,76.879,288.455,77.415,288.455,78.088z M282.837,80.795c0.873-0.093,1.592-0.41,2.152-0.951
			c0.562-0.54,0.844-1.172,0.844-1.896c0-0.301-0.072-0.526-0.221-0.677c-0.146-0.15-0.32-0.226-0.52-0.226
			c-0.494,0-0.955,0.365-1.381,1.096S282.994,79.757,282.837,80.795z"/>
		<path fill="#A85D8E" d="M293.537,85.113c0.242,0,0.637-0.093,1.182-0.279l0.279,0.752c-0.352,0.251-0.797,0.46-1.338,0.629
			c-0.541,0.168-1.055,0.252-1.541,0.252c-0.789,0-1.395-0.188-1.82-0.564c-0.428-0.375-0.641-0.922-0.641-1.638
			c0-0.329,0.064-0.845,0.193-1.547l0.988-5.446h-1.234l0.117-0.698l1.525-0.419l1.494-2.288h1.568l-0.408,2.288h1.697l-0.193,1.117
			h-1.697l-0.979,5.468c-0.113,0.587-0.172,1.017-0.172,1.289c0,0.38,0.096,0.655,0.285,0.827S293.263,85.113,293.537,85.113z"/>
		<path fill="#A85D8E" d="M298.671,85.285l1.277,0.258l-0.117,0.709h-4.223l1.611-9.131l-0.977-0.258l0.117-0.709h3.922
			L298.671,85.285z M297.769,72.631c0-0.466,0.162-0.855,0.488-1.171s0.715-0.473,1.166-0.473c0.457,0,0.846,0.159,1.164,0.478
			c0.32,0.319,0.479,0.708,0.479,1.166c0,0.451-0.156,0.84-0.473,1.166c-0.314,0.325-0.705,0.488-1.17,0.488
			c-0.459,0-0.85-0.159-1.172-0.479C297.929,73.488,297.769,73.097,297.769,72.631z"/>
		<path fill="#A85D8E" d="M310.445,78.088c0,0.645-0.236,1.239-0.709,1.783s-1.154,0.992-2.047,1.343
			c-0.891,0.351-1.902,0.569-3.035,0.655c-0.035,0.144-0.053,0.387-0.053,0.73c0,1.69,0.648,2.535,1.943,2.535
			c0.531,0,1.021-0.102,1.473-0.307c0.451-0.203,0.873-0.438,1.268-0.703l0.473,0.677c-0.631,0.53-1.314,0.94-2.053,1.229
			c-0.736,0.291-1.445,0.436-2.127,0.436c-1.268,0-2.234-0.318-2.9-0.956s-0.998-1.572-0.998-2.804s0.262-2.374,0.783-3.427
			c0.523-1.053,1.215-1.882,2.074-2.487c0.859-0.604,1.75-0.907,2.674-0.907c0.988,0,1.775,0.198,2.359,0.597
			C310.152,76.879,310.445,77.415,310.445,78.088z M304.826,80.795c0.875-0.093,1.592-0.41,2.154-0.951
			c0.562-0.54,0.844-1.172,0.844-1.896c0-0.301-0.074-0.526-0.221-0.677s-0.32-0.226-0.521-0.226c-0.494,0-0.953,0.365-1.379,1.096
			C305.275,78.872,304.984,79.757,304.826,80.795z"/>
		<path fill="#A85D8E" d="M318.373,83.062c0,1.089-0.365,1.929-1.096,2.519c-0.73,0.592-1.822,0.887-3.277,0.887
			c-0.551,0-1.145-0.062-1.777-0.188c-0.635-0.126-1.105-0.257-1.412-0.393l0.494-2.804h0.709l0.16,1.418
			c0.459,0.645,1.092,0.967,1.902,0.967c0.586,0,1.057-0.155,1.406-0.468c0.352-0.311,0.527-0.699,0.527-1.165
			c0-0.279-0.096-0.535-0.285-0.769c-0.189-0.232-0.484-0.463-0.887-0.692l-0.709-0.408c-0.795-0.444-1.357-0.907-1.686-1.392
			c-0.33-0.482-0.494-1.025-0.494-1.627c0-2.041,1.35-3.062,4.049-3.062c0.846,0,1.783,0.114,2.814,0.344l-0.461,2.589h-0.709
			l-0.141-1.182c-0.15-0.187-0.371-0.356-0.666-0.51c-0.293-0.154-0.623-0.231-0.988-0.231c-0.543,0-0.943,0.122-1.197,0.365
			s-0.381,0.562-0.381,0.956c0,0.279,0.105,0.541,0.316,0.784s0.676,0.565,1.391,0.967c0.682,0.38,1.17,0.707,1.467,0.983
			c0.297,0.275,0.525,0.581,0.688,0.918C318.291,82.206,318.373,82.604,318.373,83.062z"/>
	</g>
</g>
</svg>
